<?xml version="1.0" standalone="no"?>
<!DOCTYPE svg PUBLIC "-//W3C//DTD SVG 1.1//EN" "http://www.w3.org/Graphics/SVG/1.1/DTD/svg11.dtd" >
<svg xmlns="http://www.w3.org/2000/svg">
<metadata>Generated by IcoMoon</metadata>
<defs>
<font id="icomoon" horiz-adv-x="1024">
<font-face units-per-em="1024" ascent="960" descent="-64" />
<missing-glyph horiz-adv-x="1024" />
<glyph unicode="&#x20;" horiz-adv-x="512" d="" />
<glyph unicode="&#xe7f4;" glyph-name="bell" d="M768 256.667l86-86v-42h-684v42l86 86v212c0 132 70 240 192 270v30c0 36 28 64 64 64s64-28 64-64v-30c122-30 192-140 192-270v-212zM512 0.667c-48 0-86 38-86 84h172c0-46-40-84-86-84z" />
<glyph unicode="&#xe900;" glyph-name="arrows" d="M874.065 85.935c96.746 96.746 149.935 225.322 149.935 362.065s-53.189 265.319-149.935 362.065-225.322 149.935-362.065 149.935-265.319-53.189-362.065-149.935-149.935-225.322-149.935-362.065 53.189-265.319 149.935-362.065 225.322-149.935 362.065-149.935 265.319 53.189 362.065 149.935zM56.54 448c0 251.079 204.381 455.46 455.46 455.46s455.46-204.381 455.46-455.46-204.381-455.46-455.46-455.46-455.46 204.381-455.46 455.46zM669.683 465.59c11.099 11.099 11.099 28.898 0 39.997s-28.898 11.099-39.997 0l-117.687-117.687-117.687 117.687c-11.099 11.099-28.898 11.099-39.997 0-5.445-5.445-8.376-12.774-8.376-19.894s2.722-14.449 8.376-19.894l137.58-137.58c11.099-11.099 28.898-11.099 39.997 0l137.79 137.371z" />
<glyph unicode="&#xe901;" glyph-name="arrows-1" d="M747.84 555.312l-231.584-231.6-231.76 231.792c-12.496 12.496-32.752 12.496-45.248 0-12.496-12.464-12.496-32.752 0-45.248l254.064-254.128c3.968-3.968 9.408-6.976 14.848-8.4 2.72-0.72 5.504-1.088 8.256-1.088 8.368 0 16.56 3.312 22.624 9.376l254.064 254.064c12.496 12.496 12.496 32.752 0 45.248s-32.768 12.48-45.264-0.016zM512 960c-282.32 0-512-229.68-512-512s229.68-512 512-512 512 229.68 512 512-229.68 512-512 512zM512 0c-247.024 0-448 200.976-448 448s200.976 448 448 448 448-200.976 448-448-200.976-448-448-448z" />
<glyph unicode="&#xe902;" glyph-name="back" d="M311.568 448.027l462.455 462.455c11.374 11.374 11.374 29.614 0 40.988s-29.614 11.374-40.988 0l-483.056-483.056c-11.374-11.374-11.374-29.614 0-40.988l483.056-482.842c5.58-5.58 13.090-8.584 20.387-8.584s14.807 2.79 20.387 8.584c11.374 11.374 11.374 29.614 0 40.988l-462.24 462.455z" />
<glyph unicode="&#xe903;" glyph-name="gift-box-with-a-bow" d="M454.682 391.394c-84.336 0-332.548 0-332.548 0-26.349 0-47.91-21.557-47.91-47.906v-359.585c0-26.349 21.56-47.906 47.91-47.906 0 0 253.406 0 338.14 0 11.271 0 11.271 12.108 11.271 12.108v427.010c-0.003 0-0.003 16.279-16.862 16.279zM901.87 391.394c0 0-249.161 0-332.209 0-20.234 0-17.204-21.072-17.204-21.072v-422.608c0 0-0.164-11.707 12.007-11.707 84.35 0 337.4 0 337.4 0 26.349 0 47.91 21.557 47.91 47.906v359.574c0.007 26.349-21.553 47.906-47.903 47.906zM471.541 674.322c0 0 0 16.234-16.042 16.234-96.060 0-387.466 0-387.466 0-26.349 0-47.91-21.56-47.91-47.906v-149.548c0-26.349 21.56-47.906 47.91-47.906 0 0 292.712 0 388.779 0 14.73 0 14.73 12.775 14.73 12.775v216.351zM955.968 690.556c0 0-291.525 0-388.702 0-14.803 0-14.803-14.105-14.803-14.105v-218.777c0 0 0-12.478 17.997-12.478 96.374 0 385.508 0 385.508 0 26.349 0 47.91 21.557 47.91 47.906v149.548c0 26.346-21.56 47.906-47.91 47.906zM308.59 726.001c-21.92 0-41.941 1.738-59.498 5.169-44.594 8.712-75.243 25.669-93.701 51.833-16.538 23.449-21.599 52.357-15.047 85.924 11.477 58.73 50.918 91.072 111.052 91.072 12.726 0 26.702-1.469 41.543-4.37 37.753-7.375 86.039-29.023 129.171-57.906 73.177-49.009 76.797-79.477 73.153-98.134-5.358-27.414-30.981-47.002-78.336-59.889-31.993-8.705-71.481-13.7-108.336-13.7zM251.399 883.214c-23.288 0-31.292-6.506-35.686-29.009-3.595-18.398 0.939-24.824 2.426-26.936 6.227-8.831 22.447-16.196 45.676-20.73 12.534-2.45 28.021-3.745 44.772-3.745 36.835 0 69.285 5.581 90.818 11.686 1.567 0.443 4 2.297 1.393 3.85-28.15 22.932-79.652 53.554-122.581 61.941-10 1.948-19.026 2.942-26.817 2.942zM716.52 726.001c0 0 0 0-0.007 0-36.856 0-76.339 4.995-108.333 13.7-47.358 12.883-72.978 32.475-78.336 59.885-3.641 18.656-0.028 49.124 73.156 98.134 43.124 28.883 91.411 50.531 129.171 57.906 14.841 2.901 28.817 4.37 41.533 4.37 60.147 0 99.586-32.346 111.052-91.076 6.559-33.564 1.501-62.472-15.040-85.921-18.457-26.168-49.103-43.121-93.708-51.833-17.55-3.424-37.571-5.166-59.488-5.166zM624.924 818.805c-2.496-1.449-1.288-3.735 0.007-4.108 21.522-6.189 54.315-11.906 91.582-11.906 16.758 0 32.238 1.295 44.775 3.745 23.225 4.538 39.452 11.899 45.676 20.73 1.494 2.112 6.031 8.538 2.426 26.936-4.391 22.503-12.398 29.009-35.69 29.009-7.787 0-16.806-0.991-26.814-2.946-42.932-8.384-93.812-38.524-121.963-61.46z" />
<glyph unicode="&#xe904;" glyph-name="money2" d="M390.174 641.347c67.633 38.947 176.935 39.156 244.15 0 67.214-38.947 66.796-102.392-0.838-141.339s-176.935-38.947-243.94 0c-67.424 39.156-67.005 102.392 0.628 141.339zM421.164 579.996c5.863-1.885 11.516-3.769 17.589-5.444 3.56-1.047 5.654-1.256 7.329-0.419 0.838 0.419 1.675 1.466 2.303 2.722 3.978 6.282 9.841 11.726 18.008 16.332 0.838 0.628 1.885 1.047 2.931 1.675 2.513 1.256 5.235 2.513 8.376 3.141 11.307 2.513 21.148-1.675 19.683-8.585-0.628-3.56-2.513-6.91-4.816-10.26-3.978-5.654-8.376-11.307-11.307-17.17-9.423-18.845 11.098-37.272 43.763-39.156 11.935-0.628 23.033 0.838 33.503 4.188 4.607 1.466 7.957 1.466 11.516-0.838 3.35-2.094 7.119-4.188 10.679-6.282 3.141-1.885 6.491-1.885 9.841 0 2.303 1.256 4.607 2.513 6.91 3.769 1.675 0.838 3.141 1.885 4.816 2.931 3.35 1.885 2.931 3.978-0.419 6.072-2.513 1.466-5.235 3.141-7.747 4.607-5.863 3.35-5.863 3.769-1.047 7.538 6.072 4.816 11.516 9.841 14.867 15.495 2.722 4.397 1.885 5.444-4.816 7.747-5.235 1.675-10.26 3.35-15.495 5.025-3.769 1.256-5.863 1.466-7.538 0.628-0.838-0.628-1.675-1.466-2.303-2.931-3.56-6.282-9.004-12.145-16.123-17.379-1.256-0.838-2.513-1.675-3.769-2.513-3.769-2.303-8.166-3.978-13.401-5.235-12.773-2.931-24.708 2.303-23.242 10.26 0.419 2.722 1.885 5.235 3.56 7.957 4.397 6.491 10.051 12.773 13.192 19.683 4.816 11.098 2.722 21.358-12.982 29.315-17.589 9.004-37.272 9.632-58.001 3.978-8.585-2.303-8.585-2.303-15.076 1.466-2.303 1.256-4.397 2.513-6.701 3.769-5.025 2.722-6.701 2.722-11.726 0-0.628-0.209-1.047-0.628-1.466-0.838-1.047-0.628-2.094-1.256-2.931-1.885-10.47-6.072-10.47-6.072-0.209-12.145 7.329-4.188 7.329-4.397 1.256-9.213-4.816-3.769-8.585-7.957-11.516-12.145-2.303-2.931-1.466-4.607 2.513-5.863zM6.361 508.803l614.352 354.498c8.376 4.816 22.195 4.816 30.571 0l366.015-212.741c8.376-4.816 8.376-12.773 0-17.798l-614.143-354.498c-8.585-5.025-22.195-4.816-30.571 0l-366.224 212.741c-8.376 4.816-8.585 12.773 0 17.798zM326.52 360.135c3.35 3.35 7.538 6.282 12.354 9.004 31.199 18.008 81.662 18.008 112.862 0 2.303-1.466 4.397-2.722 6.491-4.397l413.756 239.124c-3.978 1.675-7.747 3.35-11.307 5.444-30.99 18.008-30.78 47.322 0.419 65.33 3.35 1.885 7.119 3.769 10.888 5.235l-170.653 99.042c-2.722-2.094-5.654-4.397-9.004-6.282-31.199-18.008-81.872-18.008-112.862 0-3.56 2.094-6.701 4.188-9.213 6.491l-415.012-239.752c5.444-1.885 10.679-4.188 15.286-6.91 30.99-18.008 30.78-47.322-0.419-65.33-4.816-2.722-10.26-5.025-15.914-7.119l172.329-99.879zM276.475 450.592l27.011-15.704c4.188-2.303 10.888-2.513 15.076 0l47.532 27.43c4.188 2.513 4.188 6.282 0 8.794l-27.011 15.704c-4.188 2.303-10.888 2.513-15.076 0l-47.532-27.43c-4.188-2.513-4.188-6.491 0-8.794zM657.566 670.662l27.011-15.704c4.188-2.303 10.888-2.513 15.076 0l47.532 27.43c4.188 2.513 4.188 6.282 0 8.794l-27.011 15.704c-4.188 2.303-10.888 2.513-15.076 0l-47.532-27.43c-4.188-2.513-4.188-6.491 0-8.794zM47.821 399.71l-47.741-27.64 383.813-223.001 12.563 7.119 35.387 20.311 592.157 342.563-47.322 27.43-592.366-342.144-336.491 195.362zM48.658 278.892l-47.741-27.64 382.347-222.164 12.354 7.119 35.387 20.311 592.994 343.191-47.322 27.43-593.204-342.982-334.816 194.733z" />
<glyph unicode="&#xe905;" glyph-name="multimedia" d="M874.126 810.126c-96.865 96.652-225.45 149.874-362.126 149.874s-265.261-53.222-362.126-149.874c-96.652-96.865-149.874-225.45-149.874-362.126s53.222-265.261 149.874-362.126c96.652-96.652 225.237-149.874 362.126-149.874s265.261 53.222 362.126 149.874c96.652 96.652 149.874 225.237 149.874 362.126s-53.222 265.261-149.874 362.126zM512-6.52c-250.571 0-454.52 203.948-454.52 454.52s203.948 454.52 454.52 454.52 454.52-203.948 454.52-454.52-203.948-454.52-454.52-454.52zM743.411 472.269l-324.87 208.419c-8.941 5.748-20.012 6.174-29.379 1.064-9.154-5.109-14.902-14.689-14.902-25.121v-416.625c0-10.432 5.748-20.225 14.902-25.121 4.258-2.342 9.154-3.619 13.838-3.619 5.322 0 10.857 1.49 15.541 4.471l324.87 208.419c8.303 5.322 13.199 14.477 13.199 24.269s-5.109 18.521-13.199 23.844zM431.741 292.165v311.671l242.907-155.835-242.907-155.835z" />
<glyph unicode="&#xe906;" glyph-name="play-button" d="M879.393 468.078l-707.064 487.631c-7.485 5.145-17.189 5.681-25.186 1.512-8.022-4.218-13.044-12.508-13.044-21.578v-975.261c0-9.070 5.023-17.384 13.044-21.602 3.56-1.853 7.461-2.779 11.337-2.779 4.852 0 9.679 1.463 13.849 4.316l707.064 487.631c6.607 4.559 10.533 12.044 10.533 20.066s-3.95 15.507-10.533 20.066zM182.861 6.804v882.392l639.747-441.208-639.747-441.184z" />
<glyph unicode="&#xe907;" glyph-name="power-button" d="M512.001 451.224c-19.914 0-36.060 16.146-36.060 36.060v436.656c0 19.914 16.146 36.060 36.060 36.060s36.060-16.146 36.060-36.060v-436.656c0-19.914-16.143-36.060-36.060-36.060zM512.001-64c-253.374 0-459.507 206.136-459.507 459.504 0 101.325 32.336 197.409 93.516 277.863 59.181 77.829 143.192 135.761 236.553 163.121 19.112 5.622 39.144-5.351 44.746-24.46 5.599-19.112-5.351-39.144-24.463-44.746-163.822-48.014-278.235-200.891-278.235-371.777 0-213.604 173.78-387.384 387.387-387.384 213.604 0 387.387 173.78 387.387 387.384 0 170.886-114.414 323.763-278.235 371.777-19.112 5.599-30.062 25.634-24.46 44.746 5.596 19.112 25.631 30.077 44.746 24.46 93.363-27.359 177.369-85.292 236.553-163.121 61.181-80.457 93.516-176.538 93.516-277.863 0.006-253.368-206.13-459.504-459.504-459.504z" />
<glyph unicode="&#xe908;" glyph-name="facebook" d="M376.354 761.682c0-25.805 0-140.984 0-140.984h-103.289v-172.396h103.289v-512.3h212.178v512.286h142.382c0 0 13.335 82.663 19.798 173.046-18.532 0-161.378 0-161.378 0s0 100.294 0 117.874c0 17.618 23.134 41.316 45.999 41.316 22.822 0 70.99 0 115.603 0 0 23.472 0 104.573 0 179.474-59.557 0-127.314 0-157.18 0-222.647 0.012-217.402-172.555-217.402-198.315z" />
<glyph unicode="&#xe909;" glyph-name="youtube" d="M984.087 746.463c-36.963 43.94-105.208 61.863-235.54 61.863h-473.105c-133.315 0-202.716-19.079-239.54-65.86-35.903-45.611-35.903-112.815-35.903-205.827v-177.281c0-180.194 42.598-271.684 275.443-271.684h473.108c113.023 0 175.652 15.816 216.17 54.592 41.551 39.764 59.28 104.689 59.28 217.091v177.281c0 98.089-2.778 165.69-39.913 209.824zM657.411 423.523l-214.835-112.28c-4.803-2.51-10.055-3.756-15.301-3.756-5.939 0-11.865 1.599-17.114 4.776-9.883 5.989-15.918 16.701-15.918 28.256v223.84c0 11.535 6.018 22.237 15.882 28.229 9.867 5.992 22.138 6.402 32.375 1.083l214.835-111.557c10.93-5.675 17.794-16.959 17.811-29.27 0.013-12.321-6.821-23.621-17.735-29.323z" />
<glyph unicode="&#xe90a;" glyph-name="search" d="M705.315 291.547c65.463 70.869 106.304 165.762 106.304 270.264 0 219.215-178.374 398.189-398.189 398.189s-398.189-178.974-398.189-398.189 178.374-398.189 398.189-398.189c89.488 0 171.767 29.428 238.432 79.277l296.089-296.089c7.207-7.207 16.216-10.811 25.225-10.811s18.617 3.604 25.225 10.811c13.814 13.814 13.814 36.635 0 51.049l-293.085 293.687zM87.311 561.811c0 179.576 145.943 326.119 326.119 326.119 179.576 0 326.119-145.943 326.119-326.119s-145.943-326.119-326.119-326.119-326.119 146.543-326.119 326.119z" />
<glyph unicode="&#xe90b;" glyph-name="cup" d="M788.832 960l1.088-23.2c0.672-13.312-2.688-23.488-10.144-31.2-10.048-10.304-26.368-15.488-40.064-17.824 0.512 11.872 0.992 23.84 1.376 36.224-19.808 0-124.512 0-228.96 0-0.096 0-0.16 0-0.256 0-104.48 0-209.12 0-228.928 0 0.384-12.384 0.896-24.352 1.408-36.224-13.728 2.336-30.016 7.552-40.096 17.856-7.52 7.68-10.88 17.888-10.208 31.2l1.12 23.168h-121.312l0.416-22.528c6.72-387.552 170.784-481.376 245.888-504l-12.32-17.504 36.16-25.504 12.352 17.632c24.704-46.016 46.24-75.392 55.424-98.88h-16.768v-35.104h20.48c-8.288-54.208-117.888-116.992-117.888-116.992v-33.088h-26.88v-188.032h402.496v188.032h-26.816v33.088c0 0-109.632 62.784-117.92 116.992h20.48v35.104h-16.736c9.184 23.456 30.72 52.768 55.424 98.88l12.32-17.632 36.224 25.504-12.352 17.504c75.136 22.624 239.2 116.448 245.92 504l0.384 22.528h-121.312zM159.072 915.744h32.352c3.040-15.904 10.24-29.888 21.312-41.184 22.144-22.56 53.92-29.376 74.144-31.488 11.808-170.56 43.264-284.448 75.936-363.936-64.288 23.552-192.48 111.168-203.744 436.608zM661.152 479.136c32.672 79.488 64.128 193.376 75.936 363.936 20.256 2.112 52 8.928 74.112 31.488 11.136 11.296 18.304 25.28 21.344 41.184h32.352c-11.2-325.44-139.424-413.056-203.744-436.608z" />
<glyph unicode="&#xe90c;" glyph-name="greed" d="M0 960h292.571v-292.571h-292.571v292.571zM365.714 960h292.571v-292.571h-292.571v292.571zM731.429 960h292.571v-292.571h-292.571v292.571zM0 594.286h292.571v-292.571h-292.571v292.571zM365.714 594.286h292.571v-292.571h-292.571v292.571zM731.429 594.286h292.571v-292.571h-292.571v292.571zM0 228.571h288.914v-288.914h-288.914v288.914zM365.714 228.571h288.914v-288.914h-288.914v288.914zM731.429 228.571h288.914v-288.914h-288.914v288.914z" />
<glyph unicode="&#xe90d;" glyph-name="list" horiz-adv-x="1593" d="M0 960h1592.889v-113.778h-1592.889v113.778zM0 732.444h1592.889v-113.778h-1592.889v113.778zM0 504.889h1592.889v-113.778h-1592.889v113.778zM0 277.333h1592.889v-113.778h-1592.889v113.778zM0 49.778h1592.889v-113.778h-1592.889v113.778z" />
<glyph unicode="&#xe90e;" glyph-name="small-greed" horiz-adv-x="1593" d="M0 960h455.111v-113.778h-455.111v113.778zM0 732.444h455.111v-113.778h-455.111v113.778zM0 504.889h455.111v-113.778h-455.111v113.778zM0 277.333h455.111v-113.778h-455.111v113.778zM0 49.778h455.111v-113.778h-455.111v113.778zM568.889 960h460.8v-113.778h-460.8v113.778zM568.889 732.444h460.8v-113.778h-460.8v113.778zM568.889 504.889h460.8v-113.778h-460.8v113.778zM568.889 277.333h460.8v-113.778h-460.8v113.778zM568.889 49.778h460.8v-113.778h-460.8v113.778zM1137.778 960h455.111v-113.778h-455.111v113.778zM1137.778 732.444h455.111v-113.778h-455.111v113.778zM1137.778 504.889h455.111v-113.778h-455.111v113.778zM1137.778 277.333h455.111v-113.778h-455.111v113.778zM1137.778 49.778h455.111v-113.778h-455.111v113.778z" />
<glyph unicode="&#xe90f;" glyph-name="arrows-bottom2" d="M527.359-58.068l207.411 227.55c5.135 6.322 6.123 13.234 2.962 20.741-3.165 7.499-8.89 11.264-17.19 11.264h-132.742v739.55c0 5.533-1.775 10.079-5.33 13.63-3.553 3.549-8.099 5.332-13.628 5.332h-113.775c-5.527 0-10.073-1.775-13.622-5.33-3.553-3.56-5.328-8.105-5.328-13.63v-739.556h-132.74c-7.912 0-13.637-3.771-17.182-11.266-3.174-7.514-1.974-14.425 3.545-20.748l209.793-227.55c3.948-3.95 8.68-5.92 14.216-5.92 5.123 0 9.66 1.982 13.61 5.932z" />
<glyph unicode="&#xe910;" glyph-name="star" d="M536.206 920.156l130.254-308.288 333.466-28.647c23.128-1.997 32.537-30.855 14.981-46.046l-252.938-219.139 75.797-326.002c5.256-22.655-19.291-40.474-39.16-28.437l-286.579 172.831-286.579-172.831c-19.922-11.985-44.417 5.835-39.16 28.437l75.797 326.002-252.991 219.192c-17.556 15.191-8.2 44.049 14.981 46.046l333.466 28.647 130.254 308.236c9.041 21.446 39.37 21.446 48.411 0z" />
<glyph unicode="&#xe911;" glyph-name="cancel" d="M463.056 451.424l-453.248-453.248c-12.592-12.592-12.592-32.992 0-45.584 6.288-6.304 14.544-9.44 22.784-9.44 8.256 0 16.496 3.136 22.784 9.44l456.656 456.656 456.656-456.656c6.304-6.304 14.544-9.44 22.784-9.44s16.496 3.136 22.784 9.44c12.592 12.592 12.592 32.992 0 45.584l-453.232 453.248 453.536 453.568c12.592 12.592 12.592 32.992 0 45.584-12.592 12.576-32.992 12.576-45.568 0l-456.944-456.976-456.992 456.96c-12.592 12.576-32.976 12.576-45.568 0-12.592-12.592-12.592-32.992 0-45.584l453.568-453.552z" />
<glyph unicode="&#xe912;" glyph-name="arrow3" horiz-adv-x="1458" d="M915.394 218.376h108.606v459.248h-108.606v-459.248zM601.988 960l-601.988-512 601.988-512v282.376h201.697v459.248h-201.697v282.376zM1135.709 218.376h102.4v459.248h-102.4v-459.248zM1349.818 677.624v-459.248h108.606v459.248h-108.606z" />
<glyph unicode="&#xe913;" glyph-name="repeat" d="M1015.556 783.731l-233.997 157.462c-12.756 8.574-29.903-0.627-29.903-15.893v-85.109h-666.651c-39.941 0-72.353-32.412-72.353-72.353v-384.558h144.706v311.996h594.089v-85.318c0-15.474 17.147-24.466 29.903-15.893l233.997 157.671c11.501 7.528 11.501 24.257 0.209 31.994zM866.668 200.933h-594.089v85.109c0 15.474-17.147 24.466-29.903 15.893l-234.206-157.462c-11.292-7.528-11.292-24.257 0-31.994l233.997-157.671c12.756-8.574 29.903 0.627 29.903 15.893v85.318h666.442c39.941 0 72.353 32.412 72.353 72.353v384.558h-144.706v-311.996h0.209z" />
<glyph unicode="&#xe914;" glyph-name="man" horiz-adv-x="739" d="M678.043 670.343l-4.080 1.632c-14.687 4.896-29.374 8.975-41.613 12.239l-5.712 1.632v5.712c-0.816 17.951-4.896 35.085-8.975 53.852l-1.632 7.343c-4.896 24.478-11.423 53.036-21.214 80.778-7.343 22.030-18.767 49.772-39.165 72.618-15.503 17.135-38.349 25.294-69.355 25.294-23.662 0-47.324-4.080-70.171-7.343l-14.687-2.448h-1.632c-2.448 0-4.080 0.816-6.527 1.632-11.423 2.448-22.030 5.712-32.637 8.159-6.527 1.632-13.871 3.264-20.398 4.896-33.453 8.159-63.643 13.871-88.937-2.448-19.582-12.239-30.19-35.085-41.613-57.116-2.448-4.080-4.080-8.975-6.527-13.055-3.264-5.712-6.527-9.791-8.975-13.871-3.264-4.080-5.712-8.159-8.159-13.871-6.527-12.239-12.239-25.294-17.135-39.165 0-0.816 0-0.816-0.816-1.632 21.214-0.816 42.429-1.632 62.011-2.448 40.797-2.448 78.33-5.712 114.231-8.975l11.423-0.816c32.637-3.264 66.907-6.527 100.36-15.503 8.159-2.448 11.423-12.239 9.791-20.398-1.632-8.975-6.527-15.503-13.871-15.503-28.558 0-56.3 3.264-83.225 6.527-10.607 0.816-20.398 2.448-31.006 3.264-39.165 4.080-77.514 6.527-113.415 8.975-26.11 1.632-51.404 3.264-77.514 4.896-8.159-0.816-15.503-1.632-23.662-2.448-9.791-0.816-18.767-1.632-28.558-2.448-35.085-4.896-59.563-10.607-75.882-18.767-0.816 0-2.448-1.632-2.448-4.080s1.632-5.712 4.080-7.343c13.871-7.343 33.453-11.423 51.404-15.503 17.951-3.264 35.901-4.896 53.852-6.527l23.662-2.448-2.448-8.975c-1.632-8.159-3.264-17.135-4.896-24.478-1.632-8.159-3.264-15.503-4.896-21.214-4.080-17.135-2.448-32.637 4.896-40.797 13.055-15.503 4.080-37.533 0-48.14-3.264-7.343-8.975-19.582-14.687-31.822-5.712-11.423-11.423-23.662-14.687-31.006-0.816-2.448-2.448-4.896-3.264-7.343-4.896-11.423-4.896-13.055-0.816-16.319 6.527-6.527 13.871-6.527 24.478-7.343 2.448 0 4.080 0 6.527 0 13.871-0.816 30.19-1.632 30.19-16.319 0-7.343-5.712-15.503-8.975-19.582 0-3.264 0-5.712 0.816-7.343 2.448-0.816 8.975-2.448 14.687-2.448h28.558l-24.478-14.687c-3.264-1.632-8.975-5.712-11.423-8.159 0-1.632 0-5.712 0.816-9.791l14.687-4.896 4.080-18.767-3.264-3.264c-4.080-4.896-10.607-13.871-11.423-18.767v-2.448c-1.632-8.975-4.896-32.637 4.080-39.981s53.852-6.527 73.434-6.527c4.896 0 8.159 0 11.423 0 4.896 0 12.239 0.816 19.582 1.632 29.374 3.264 65.275 7.343 75.882-15.503 6.527-13.871 8.159-37.533 8.159-57.116 13.871 12.239 26.926 23.662 39.165 33.453 31.822 24.478 64.459 44.061 95.465 62.011 4.080 2.448 9.791 1.632 12.239-3.264 2.448-4.080 2.448-9.791-1.632-12.239-10.607-8.975-21.214-17.951-31.822-26.11-17.951-14.687-36.717-30.19-54.668-45.692-5.712-5.712-12.239-10.607-17.951-15.503-17.135-13.871-35.085-29.374-57.116-54.668-1.632-2.448-5.712-6.527-9.791-12.239l-3.264-4.080-5.712 1.632c-1.632 0.816-3.264 0.816-4.896 0.816s-4.080-0.816-5.712-1.632c-2.448-1.632-4.080-4.080-4.896-7.343-6.527-25.294-12.239-51.404-17.951-76.698l-2.448-10.607c-4.080-18.767-9.791-37.533-15.503-55.484-3.264-11.423-6.527-22.846-9.791-34.269 0-0.816 0-0.816 0-0.816s0.816-0.816 0.816-0.816c0.816 0 1.632 0.816 1.632 0.816 13.055 18.767 22.030 40.797 30.19 62.011l0.816 1.632 1.632 1.632c20.398 17.951 39.165 34.269 55.484 49.772 12.239 11.423 23.662 22.846 35.901 34.269 8.975 8.975 17.951 17.135 26.926 26.11 67.723 57.931 134.629 93.833 167.267 110.967 8.975 4.896 15.503 8.159 18.767 10.607l1.632 1.632c11.423 7.343 18.767 12.239 19.582 15.503s-0.816 8.975-4.080 19.582v0.816c-1.632 8.159-4.080 16.319-5.712 24.478-5.712 23.662-11.423 48.14-19.582 70.986-0.816 1.632-0.816 3.264-1.632 4.896 0 0.816 0 0.816-0.816 1.632-4.080-2.448-7.343-4.080-9.791-5.712-1.632-0.816-3.264-2.448-4.080-2.448l-8.159-4.080-3.264 8.159c-5.712 12.239-10.607 29.374-13.055 45.692-2.448 15.503-3.264 32.637-1.632 50.588 0 3.264 0.816 6.527 0.816 9.791l0.816 5.712 9.791 8.159c2.448 4.080 9.791 17.135 16.319 35.085 4.080 9.791 7.343 19.582 9.791 26.926 1.632 5.712 3.264 11.423 4.896 16.319 4.080 12.239 7.343 22.030 8.159 29.374 0.816 4.080 0.816 4.080 2.448 16.319l0.816 8.159 8.159-1.632c11.423-2.448 39.981-4.080 49.772-4.080 24.478-1.632 43.245 0.816 48.956 3.264 4.896 20.398-17.951 29.374-41.613 36.717zM682.939 685.845l-4.080 0.816c-13.055 4.080-25.294 8.159-37.533 11.423-1.632 17.135-4.896 34.269-8.975 50.588l-0.816 7.343c-4.896 24.478-12.239 53.852-22.030 82.41-8.159 23.662-20.398 53.036-42.429 78.33-18.767 20.398-45.692 30.19-81.594 30.19-24.478 0-48.956-4.080-72.618-8.159l-12.239-1.632c-1.632 0-3.264 0.816-4.080 0.816-10.607 2.448-22.030 4.896-32.637 8.159-6.527 1.632-13.055 3.264-19.582 5.712-29.374 6.527-68.539 16.319-101.992-4.896-22.846-14.687-35.901-40.797-47.324-63.643-2.448-4.080-4.080-8.975-6.527-13.055-2.448-4.896-4.896-8.159-7.343-11.423-3.264-4.896-6.527-8.975-9.791-16.319-6.527-12.239-12.239-26.11-17.951-39.981-1.632-4.080-3.264-8.159-4.896-12.239l-4.896-11.423h12.239c25.294-0.816 49.772-1.632 73.434-3.264 40.797-2.448 77.514-5.712 113.415-8.975l11.423-0.816c33.453-3.264 64.459-6.527 95.465-14.687 0-1.632 0-3.264 0-4.896-26.11 0-53.036 3.264-79.146 5.712-10.607 0.816-21.214 2.448-31.822 3.264-39.165 4.080-77.514 6.527-114.231 8.975-26.11 1.632-52.22 3.264-77.514 4.896h-1.632c-8.159-0.816-16.319-1.632-23.662-2.448-9.791-0.816-19.582-1.632-28.558-2.448-37.533-4.080-62.011-10.607-81.594-19.582-7.343-2.448-11.423-8.975-11.423-17.135 0-8.975 4.896-17.135 13.055-21.214 16.319-8.159 36.717-13.055 55.484-17.135s37.533-5.712 56.3-6.527l4.896-0.816c-0.816-5.712-2.448-10.607-3.264-15.503-1.632-8.159-3.264-15.503-4.080-20.398-5.712-22.846-2.448-43.245 8.159-55.484 5.712-6.527 1.632-19.582-2.448-31.006-2.448-6.527-8.975-18.767-14.687-31.006-6.527-12.239-12.239-24.478-14.687-31.822-0.816-2.448-1.632-4.896-3.264-6.527-4.896-10.607-10.607-22.846 2.448-35.085 11.423-10.607 23.662-10.607 35.085-11.423 1.632 0 4.080 0 5.712 0 4.080 0 10.607-0.816 13.871-1.632-0.816-2.448-3.264-6.527-6.527-9.791l-1.632-1.632v-2.448c0-2.448-1.632-14.687 3.264-22.030 1.632-2.448 4.080-4.080 7.343-5.712-5.712-6.527-3.264-20.398-1.632-27.742l0.816-4.080 13.871-4.896v-1.632c-4.080-4.896-11.423-15.503-13.055-24.478v-2.448c-2.448-13.871-6.527-42.429 9.791-55.484 12.239-9.791 46.508-10.607 84.041-9.791 4.080 0 8.159 0 11.423 0 5.712 0 13.055 0.816 21.214 1.632 20.398 2.448 53.852 5.712 58.747-5.712 6.527-13.871 6.527-42.429 7.343-61.195l0.816-25.294 13.055 12.239c17.951 16.319 34.269 30.19 49.772 42.429-5.712-4.896-11.423-9.791-16.319-13.871-17.951-14.687-35.901-30.19-58.747-57.116-1.632-1.632-4.080-4.896-7.343-8.159-5.712 0.816-12.239 0-17.135-3.264-6.527-3.264-11.423-9.791-13.055-17.135-6.527-25.294-12.239-52.22-17.951-77.514l-2.448-10.607c-4.080-17.951-9.791-36.717-14.687-53.852-3.264-11.423-6.527-22.846-9.791-34.269-2.448-8.159 1.632-16.319 8.975-20.398 2.448-0.816 4.896-1.632 7.343-1.632 5.712 0 11.423 2.448 14.687 8.159 13.871 19.582 22.846 42.429 31.006 63.643 20.398 17.951 38.349 33.453 54.668 48.956 12.239 11.423 23.662 22.846 35.901 34.269 8.975 8.975 17.951 17.135 26.11 25.294 66.091 56.3 132.182 92.201 164.003 108.52 9.791 4.896 16.319 8.975 20.398 11.423l1.632 1.632c29.374 19.582 31.822 22.846 22.030 53.852-1.632 8.159-4.080 16.319-5.712 24.478-5.712 24.478-11.423 49.772-20.398 72.618-0.816 1.632-0.816 2.448-1.632 4.080-1.632 4.896-3.264 10.607-8.975 13.055s-11.423 0-13.055-0.816c-3.264-1.632-5.712-3.264-7.343-4.080-3.264 9.791-6.527 21.214-8.159 32.637-2.448 13.871-3.264 30.19-1.632 46.508 0 2.448 0.816 4.896 0.816 8.159l7.343 6.527 0.816 1.632c0 0.816 8.975 16.319 17.951 38.349 4.896 9.791 8.159 20.398 10.607 28.558 1.632 5.712 3.264 11.423 4.896 16.319 4.080 12.239 7.343 22.846 8.975 31.822 0.816 2.448 0.816 4.080 1.632 8.159 12.239-1.632 29.374-2.448 43.245-3.264 27.742-1.632 62.011 0 65.275 13.871 10.607 35.085-30.19 48.956-52.22 55.484zM722.104 635.257c-5.712-2.448-24.478-4.896-48.956-3.264-8.975 0.816-37.533 2.448-49.772 4.080l-8.159 1.632-0.816-8.159c-1.632-12.239-1.632-12.239-2.448-16.319-1.632-7.343-4.896-17.135-8.159-29.374-1.632-4.896-3.264-10.607-4.896-16.319-2.448-7.343-5.712-17.135-9.791-26.926-7.343-17.951-14.687-31.006-16.319-35.085l-9.791-8.159-0.816-5.712c-0.816-3.264-0.816-6.527-0.816-9.791-1.632-17.951-0.816-35.901 1.632-50.588 2.448-16.319 7.343-33.453 13.055-45.692l3.264-8.159 8.159 4.080c0.816 0.816 2.448 1.632 4.080 2.448 2.448 1.632 4.896 4.080 9.791 5.712 0-0.816 0-1.632 0.816-1.632 0.816-1.632 0.816-3.264 1.632-4.896 8.159-22.846 13.871-47.324 19.582-70.986 1.632-8.159 4.080-16.319 5.712-24.478v-0.816c3.264-10.607 4.896-17.135 4.080-19.582-1.632-3.264-8.975-8.159-19.582-15.503l-4.080-1.632c-3.264-2.448-9.791-5.712-18.767-10.607-32.637-17.135-99.544-53.852-167.267-110.967-8.975-8.159-17.951-17.135-26.926-26.11-11.423-11.423-23.662-22.846-35.901-34.269-17.135-15.503-35.085-31.822-55.484-49.772l-1.632-1.632-0.816-1.632c-8.159-21.214-17.135-43.245-30.19-62.011 0 0-0.816-0.816-1.632-0.816s-0.816 0-0.816 0.816c0 0 0 0 0 0.816 3.264 11.423 6.527 22.846 9.791 34.269 5.712 17.951 10.607 36.717 15.503 55.484l2.448 10.607c5.712 25.294 11.423 51.404 17.951 76.698 0.816 3.264 2.448 5.712 4.896 7.343 1.632 0.816 3.264 1.632 5.712 1.632 1.632 0 3.264 0 4.896-0.816l5.712-1.632 3.264 4.080c4.080 5.712 8.159 9.791 9.791 12.239 22.030 26.11 39.981 40.797 57.116 54.668 5.712 4.896 12.239 9.791 17.951 15.503 17.951 15.503 36.717 31.006 54.668 45.692 10.607 8.975 21.214 17.951 31.822 26.11 4.080 3.264 4.080 8.159 1.632 12.239-3.264 4.080-8.159 5.712-12.239 3.264-31.006-17.951-63.643-37.533-95.465-62.011-12.239-9.791-25.294-20.398-39.165-33.453-0.816 19.582-1.632 42.429-8.159 57.116-9.791 22.030-46.508 17.951-75.882 15.503-7.343-0.816-14.687-1.632-19.582-1.632-3.264 0-7.343 0-11.423 0-19.582 0-64.459-0.816-73.434 6.527s-4.896 31.006-4.080 39.981v2.448c0.816 4.896 7.343 13.871 11.423 18.767l3.264 3.264-4.080 18.767-14.687 4.896c-0.816 4.080-0.816 7.343-0.816 9.791 3.264 2.448 8.159 6.527 11.423 8.159l24.478 14.687h-28.558c-5.712 0-12.239 0.816-14.687 2.448-0.816 1.632-0.816 4.896-0.816 7.343 3.264 4.080 8.975 12.239 8.975 19.582 0 14.687-16.319 15.503-30.19 16.319-2.448 0-4.080 0-6.527 0-10.607 0-17.951 0.816-24.478 7.343-4.080 4.080-4.080 5.712 0.816 16.319 0.816 2.448 2.448 4.896 3.264 7.343 2.448 6.527 8.975 18.767 14.687 31.006 6.527 12.239 12.239 24.478 14.687 31.822 4.080 10.607 13.055 32.637 0 48.14-7.343 8.159-8.975 23.662-4.896 40.797 1.632 5.712 3.264 13.055 4.896 21.214 1.632 7.343 3.264 16.319 4.896 24.478l2.448 8.975-22.846 1.632c-17.951 1.632-36.717 3.264-53.852 6.527-18.767 4.080-37.533 8.159-51.404 15.503-3.264 0.816-4.896 4.080-4.896 6.527s1.632 4.080 2.448 4.080c17.135 8.159 40.797 13.871 75.882 17.951 9.791 0.816 18.767 1.632 28.558 2.448 8.159 0.816 15.503 1.632 23.662 2.448 26.11-1.632 51.404-3.264 77.514-4.896 35.901-2.448 74.25-5.712 113.415-8.975 10.607-0.816 21.214-2.448 31.006-3.264 26.926-3.264 55.484-6.527 83.225-6.527 7.343 0 12.239 5.712 13.871 15.503 0.816 8.975-1.632 18.767-9.791 20.398-32.637 8.975-66.907 12.239-100.36 15.503l-11.423 0.816c-35.901 3.264-73.434 6.527-114.231 8.975-20.398 1.632-41.613 2.448-62.011 2.448 0 0.816 0 0.816 0.816 1.632 5.712 13.871 11.423 26.926 17.135 39.165 2.448 5.712 5.712 9.791 8.159 13.871 2.448 3.264 5.712 8.159 8.975 13.871 2.448 4.080 4.080 8.975 6.527 13.055 10.607 22.030 22.030 44.876 41.613 57.116 24.478 16.319 54.668 10.607 88.937 2.448 6.527-1.632 13.871-3.264 20.398-4.896 10.607-2.448 22.030-5.712 32.637-8.159 2.448-0.816 4.080-0.816 6.527-1.632h1.632l14.687 2.448c22.846 3.264 47.324 7.343 70.171 7.343 31.006 0 53.852-8.159 69.355-25.294 20.398-22.030 31.006-50.588 39.165-72.618 9.791-28.558 16.319-56.3 21.214-80.778l1.632-7.343c4.080-17.951 8.159-35.901 8.975-53.852v-5.712l5.712-1.632c13.055-3.264 27.742-7.343 41.613-12.239l4.080-1.632c23.662-6.527 46.508-15.503 44.061-34.269z" />
<glyph unicode="&#xe915;" glyph-name="cake" horiz-adv-x="879" d="M800.212 553.113c-6.028 61.033-45.963 113.778-104.736 148.439 0 2.26 0 4.521 0 6.781 0 24.112-6.781 46.717-18.084 66.308 42.196 35.414 89.666 87.405 98.708 148.439 2.26 18.084-9.795 33.907-27.879 36.921-18.084 2.26-33.907-9.795-36.921-27.879-5.274-39.935-42.196-80.624-79.87-110.764-20.344 12.809-44.456 20.344-70.075 20.344-56.512 0-105.489-35.414-124.327-85.898-27.879 7.535-56.512 12.056-86.652 12.056-143.164 0-260.709-94.187-262.97-211.732-52.745-25.619-87.405-78.364-87.405-138.643 0-74.596 52.745-136.383 122.82-150.699l42.196-272.765c5.274-31.647 35.414-58.019 67.061-58.019h406.134c32.4 0 62.54 25.619 67.061 58.019l42.949 272.765c73.843 10.549 131.108 74.596 131.108 152.206 0 56.512-30.14 106.996-79.117 134.122zM544.777 805.533c21.098 0 37.675-16.577 37.675-37.675s-16.577-37.675-37.675-37.675c-21.098 0-37.675 16.577-37.675 37.675 0 20.344 17.33 37.675 37.675 37.675zM246.393 14.364l-23.358 265.984c8.288 4.521 16.577 9.795 24.112 15.070h6.781c11.302-9.795 24.865-18.084 38.428-24.112l15.070-256.942h-61.033zM353.389 14.364l-9.042 244.886c3.014 0 5.274 0 8.288 0 19.591 0 38.428 3.767 56.512 10.549l4.521-255.435h-60.28zM513.13 14.364h-53.498v218.514c18.084-12.056 39.182-20.344 60.28-24.112l-6.781-194.402zM610.331 14.364h-55.759l12.809 190.634c21.098 1.507 41.442 6.028 60.28 14.316l-17.33-204.951zM725.616 323.297c-11.302 0-22.605 2.26-33.154 6.028l-21.851 8.288-12.809-19.591c-22.605-33.907-61.033-55.005-101.722-55.005-43.703 0-85.145 24.112-106.243 62.54l-15.823 27.879-26.372-18.837c-15.823-11.302-35.414-17.33-55.005-17.33-30.893 0-59.526 15.070-77.61 39.935l-22.605 31.647-24.112-30.893c-18.084-23.358-45.21-36.921-74.596-36.921-52.745 0-94.94 42.949-94.94 94.94 0 42.196 27.126 79.117 67.815 91.173l23.358 6.781-2.26 24.112c-0.753 4.521-0.753 9.042-0.753 12.809 0 86.652 91.926 157.481 204.951 157.481 27.126 0 53.498-3.767 78.364-12.056 5.274-68.568 62.54-122.82 132.615-122.82 50.484 0 94.187 27.879 116.792 68.568 39.182-26.372 64.047-64.047 64.047-106.243l-0.753-22.605 18.837-7.535c36.921-14.316 60.28-48.977 60.28-88.912-0.753-51.238-43.703-93.433-96.447-93.433z" />
<glyph unicode="&#xe916;" glyph-name="email" horiz-adv-x="1182" d="M1063.385 960h-945.231c-64.985 0-118.154-53.169-118.154-118.154v-787.692c0-64.985 53.169-118.154 118.154-118.154h945.231c64.985 0 118.154 53.169 118.154 118.154v787.692c0 64.985-53.169 118.154-118.154 118.154zM1142.154 54.154c0-43.323-35.446-78.769-78.769-78.769h-945.231c-43.323 0-78.769 35.446-78.769 78.769v720.738l468.677-468.677c23.631-23.631 53.169-35.446 82.708-35.446s61.046 11.815 82.708 35.446l468.677 468.677v-720.738zM1142.154 830.031l-496.246-496.246c-15.754-15.754-35.446-23.631-55.138-23.631s-41.354 7.877-55.138 23.631l-496.246 496.246v11.815c0 43.323 35.446 78.769 78.769 78.769h945.231c43.323 0 78.769-35.446 78.769-78.769v-11.815z" />
<glyph unicode="&#xe917;" glyph-name="male" horiz-adv-x="265" d="M216.432 876.106c0-46.333-37.561-83.894-83.894-83.894s-83.894 37.561-83.894 83.894c0 46.333 37.561 83.894 83.894 83.894s83.894-37.561 83.894-83.894zM203.743 751.323l-71.204-189.995-70.852 189.995h-61.687l94.116-815.323h77.197l94.116 815.323zM151.926 751.323h-38.422l14.1-29.257h9.87zM151.926 642.049l-14.452 75.082h-9.87l-14.1-75.082 19.035-58.514z" />
<glyph unicode="&#xe918;" glyph-name="user1" d="M689.435 359.231l-2.618 1.183c-6.251 2.844-12.547 5.527-18.966 8.038-7.001 2.805-14.105 5.401-21.312 7.831-5.692 1.868-11.425 3.613-17.221 5.317-8.827 2.553-17.741 4.861-26.92 6.897-3.116 0.643-6.293 1.267-9.451 1.829l-2.159 0.417c-5.42 1.060-10.863 1.994-16.367 2.805l-1.577 0.249c-0.061 0-0.103 0.042-0.165 0.042l-1.577 0.207c-4.57 0.685-9.118 1.328-13.856 1.868l-16.118 1.328c-19.816 1.309-40.236 1.267-59.823-0.165l-5.711-0.478-2.66-0.207-6.668-0.601c-6.128-0.643-12.214-1.496-18.3-2.473l-1.787-0.249c-4.153-0.685-8.31-1.454-12.401-2.224-4.548-0.811-9.037-1.703-13.523-2.679-8.681-1.952-17.305-4.176-25.653-6.606-6.648-1.91-13.21-4.008-19.38-6.128l-4.279-1.538c-13.087-4.632-26.089-9.948-38.678-15.785l-3.365-1.6-0.061-0.084c-147.211-70.459-242.141-220.58-242.141-383.473 0-3.74 0.249-7.414 0.478-11.112l1.102-25.84h847.409l1.141 25.55c0.249 3.782 0.478 7.54 0.478 11.403 0 165.492-97.234 316.941-247.871 386.279zM128.255-22.455c1.787 146.255 88.262 280.422 220.059 342.219l4.237 1.661 0.498 0.478c10.323 4.716 20.979 9.014 31.781 12.815l3.426 1.225c5.879 2.036 11.736 3.904 17.822 5.63 7.582 2.224 15.31 4.218 23.058 5.96 4.008 0.85 8.019 1.661 12.153 2.431 3.281 0.601 6.542 1.225 9.845 1.745l1.619 0.291c5.941 0.934 11.904 1.787 17.844 2.431l13.584 1.183c17.78 1.309 34.793 1.496 55.398 0l13.21-1.102c3.261-0.375 6.522-0.811 10.491-1.37l4.758-0.685c4.964-0.727 9.929-1.577 14.913-2.515l2.327-0.436c2.805-0.52 5.588-1.060 8.226-1.619 8.184-1.787 16.222-3.904 24.199-6.212 5.275-1.538 10.511-3.116 15.621-4.819 6.48-2.159 12.88-4.509 19.215-7.020 6.086-2.389 12.088-4.945 18.029-7.666l1.037-0.478c134.791-61.839 222.322-196.442 224.109-344.11l-767.457-0.036zM409.323 450.628c3.116-1.309 6.335-2.45 9.554-3.594l6.752-2.45c2.595-0.995 5.213-1.975 7.873-2.805 24.761-7.789 50.663-11.797 77.001-12.007l2.098-0.042c9.037 0 18.093 0.478 26.775 1.37 2.99 0.291 5.899 0.769 8.827 1.267l6.503 0.976c3.655 0.478 7.311 1.018 11.135 1.765 2.618 0.54 5.152 1.225 7.686 1.91l7.104 1.807c3.51 0.85 7.020 1.703 10.491 2.783 2.159 0.685 4.279 1.474 6.377 2.266l5.711 2.056c4.072 1.412 8.184 2.867 12.298 4.59 1.6 0.685 3.158 1.432 4.693 2.182l1.849 0.915c5.63 2.515 11.238 5.091 16.804 8.080l3.613 2.159c6.231 3.533 12.444 7.188 18.736 11.487 3.261 2.201 6.377 4.674 9.451 7.124l10.637 8.268c61.154 50.621 96.3 124.904 96.3 201.947l0.126 2.201c0 146.193-118.94 265.114-265.134 265.114-139.545 0-255.641-109.115-264.303-248.414l-0.229-3.449c-0.333-4.383-0.601-8.765-0.601-13.252-0.042-106.781 63.501-202.645 161.875-244.251zM289.468 705.251l0.249 3.74c7.311 117.467 105.188 209.465 222.842 209.465 123.304 0 223.589-100.288 223.695-221.679l-0.126-2.182c-0.084-66.513-29.745-129.141-81.571-172.16l-9.868-7.521c-2.201-1.787-4.425-3.571-7.188-5.485-4.984-3.387-10.262-6.438-15.621-9.473l-2.97-1.807c-4.486-2.411-9.202-4.548-14.105-6.729l-5.504-2.66c-3.158-1.309-6.48-2.45-9.764-3.594l-6.855-2.473c-1.328-0.498-2.679-1.037-3.988-1.432-2.553-0.789-5.171-1.393-7.77-2.036l-8.287-2.12c-1.787-0.478-3.552-0.976-5.129-1.309-2.763-0.54-5.588-0.915-8.39-1.309l-7.893-1.183c-1.91-0.333-3.824-0.666-5.963-0.873-6.917-0.727-13.875-1.122-20.937-1.183l-1.994 0.019c-22.744 0.019-45.075 3.407-66.429 10.094-1.849 0.582-3.655 1.309-5.462 1.994l-7.809 2.844c-2.431 0.853-4.838 1.684-7.166 2.66-82.922 35.071-136.517 115.961-136.517 206.006 0 3.51 0.271 6.959 0.52 10.385z" />
<glyph unicode="&#xe919;" glyph-name="checked-mark" d="M1013.868 722.405l-114.131 114.133c-13.508 13.508-35.41 13.508-48.918 0l-475.432-475.436-202.212 202.207c-13.503 13.508-35.408 13.508-48.913 0l-114.131-114.133c-13.508-13.505-13.508-35.408 0-48.916l340.8-340.798c6.754-6.756 15.607-10.132 24.458-10.132 8.853 0 17.706 3.376 24.458 10.132l614.020 614.030c6.488 6.485 10.13 15.284 10.13 24.455 0.002 9.176-3.642 17.97-10.13 24.458z" />
<glyph unicode="&#xe91a;" glyph-name="diamon" horiz-adv-x="1243" d="M885.073 806.244l188.098 78.049-180.293 75.707h-529.951l-193.561-75.707 185.756-78.049zM332.488 767.22l-210.732 85.854-121.756-152.195 284.878-124.878zM17.171 646.244l539.317-679.024-271.61 554.146zM687.61-32.78l539.317 679.024-262.244-124.878zM380.098 753.171l-47.61-177.171 579.122 1.561-45.268 175.61zM964.683 576l277.854 128.78-112.39 140.488-218.537-80.39zM332.488 513.561l292.683-577.561 286.439 577.561z" />
<glyph unicode="&#xe91b;" glyph-name="man2" horiz-adv-x="739" d="M56.061 685.845l4.080 0.816c13.055 4.080 25.294 8.159 37.533 11.423 1.632 17.135 4.896 34.269 8.975 50.588l0.816 7.343c4.896 24.478 12.239 53.852 22.030 82.41 8.159 23.662 20.398 53.036 42.429 78.33 18.767 20.398 45.692 30.19 81.594 30.19 24.478 0 48.956-4.080 72.618-8.159l12.239-1.632c1.632 0 3.264 0.816 4.080 0.816 10.607 2.448 22.030 4.896 32.637 8.159 6.527 1.632 13.055 3.264 19.582 5.712 29.374 6.527 68.539 16.319 101.992-4.896 22.846-14.687 35.901-40.797 47.324-63.643 2.448-4.080 4.080-8.975 6.527-13.055 2.448-4.896 4.896-8.159 7.343-11.423 3.264-4.896 6.527-8.975 9.791-16.319 6.527-12.239 12.239-26.11 17.951-39.981 1.632-4.080 3.264-8.159 4.896-12.239l4.896-11.423h-12.239c-25.294-0.816-49.772-1.632-73.434-3.264-40.797-2.448-77.514-5.712-113.415-8.975l-11.423-0.816c-33.453-3.264-64.459-6.527-95.465-14.687 0-1.632 0-3.264 0-4.896 26.11 0 53.036 3.264 79.146 5.712 10.607 0.816 21.214 2.448 31.822 3.264 39.165 4.080 77.514 6.527 114.231 8.975 26.11 1.632 52.22 3.264 77.514 4.896h1.632c8.159-0.816 16.319-1.632 23.662-2.448 9.791-0.816 19.582-1.632 28.558-2.448 37.533-4.080 62.011-10.607 81.594-19.582 7.343-2.448 11.423-8.975 11.423-17.135 0-8.975-4.896-17.135-13.055-21.214-16.319-8.159-36.717-13.055-55.484-17.135s-37.533-5.712-56.3-6.527l-4.896-0.816c0.816-5.712 2.448-10.607 3.264-15.503 1.632-8.159 3.264-15.503 4.080-20.398 5.712-22.846 2.448-43.245-8.159-55.484-5.712-6.527-1.632-19.582 2.448-31.006 2.448-6.527 8.975-18.767 14.687-31.006 6.527-12.239 12.239-24.478 14.687-31.822 0.816-2.448 1.632-4.896 3.264-6.527 4.896-10.607 10.607-22.846-2.448-35.085-11.423-10.607-23.662-10.607-35.085-11.423-1.632 0-4.080 0-5.712 0-4.080 0-10.607-0.816-13.871-1.632 0.816-2.448 3.264-6.527 6.527-9.791l1.632-1.632v-2.448c0-2.448 1.632-14.687-3.264-22.030-1.632-2.448-4.080-4.080-7.343-5.712 5.712-6.527 3.264-20.398 1.632-27.742l-0.816-4.080-13.871-4.896v-1.632c4.080-4.896 11.423-15.503 13.055-24.478v-2.448c2.448-13.871 6.527-42.429-9.791-55.484-12.239-9.791-46.508-10.607-84.041-9.791-4.080 0-8.159 0-11.423 0-5.712 0-13.055 0.816-21.214 1.632-20.398 2.448-53.852 5.712-58.747-5.712-6.527-13.871-6.527-42.429-7.343-61.195l-0.816-25.294-13.055 12.239c-17.951 16.319-34.269 30.19-49.772 42.429 5.712-4.896 11.423-9.791 16.319-13.871 17.951-14.687 35.901-30.19 58.747-57.116 1.632-1.632 4.080-4.896 7.343-8.159 5.712 0.816 12.239 0 17.135-3.264 6.527-3.264 11.423-9.791 13.055-17.135 6.527-25.294 12.239-52.22 17.951-77.514l2.448-10.607c4.080-17.951 9.791-36.717 14.687-53.852 3.264-11.423 6.527-22.846 9.791-34.269 2.448-8.159-1.632-16.319-8.975-20.398-2.448-0.816-4.896-1.632-7.343-1.632-5.712 0-11.423 2.448-14.687 8.159-13.871 19.582-22.846 42.429-31.006 63.643-20.398 17.951-38.349 33.453-54.668 48.956-12.239 11.423-23.662 22.846-35.901 34.269-8.975 8.975-17.951 17.135-26.11 25.294-66.091 56.3-132.182 92.201-164.003 108.52-9.791 4.896-16.319 8.975-20.398 11.423l-1.632 1.632c-29.374 19.582-31.822 22.846-22.030 53.852 1.632 8.159 4.080 16.319 5.712 24.478 5.712 24.478 11.423 49.772 20.398 72.618 0.816 1.632 0.816 2.448 1.632 4.080 1.632 4.896 3.264 10.607 8.975 13.055s11.423 0 13.055-0.816c3.264-1.632 5.712-3.264 7.343-4.080 3.264 9.791 6.527 21.214 8.159 32.637 2.448 13.871 3.264 30.19 1.632 46.508 0 2.448-0.816 4.896-0.816 8.159l-7.343 6.527-0.816 1.632c0 0.816-8.975 16.319-17.951 38.349-4.896 9.791-8.159 20.398-10.607 28.558-1.632 5.712-3.264 11.423-4.896 16.319-4.080 12.239-7.343 22.846-8.975 31.822-0.816 2.448-0.816 4.080-1.632 8.159-12.239-1.632-29.374-2.448-43.245-3.264-27.742-1.632-62.011 0-65.275 13.871-10.607 35.085 30.19 48.956 52.22 55.484zM16.896 635.257c5.712-2.448 24.478-4.896 48.956-3.264 8.975 0.816 37.533 2.448 49.772 4.080l8.159 1.632 0.816-8.159c1.632-12.239 1.632-12.239 2.448-16.319 1.632-7.343 4.896-17.135 8.159-29.374 1.632-4.896 3.264-10.607 4.896-16.319 2.448-7.343 5.712-17.135 9.791-26.926 7.343-17.951 14.687-31.006 16.319-35.085l9.791-8.159 0.816-5.712c0.816-3.264 0.816-6.527 0.816-9.791 1.632-17.951 0.816-35.901-1.632-50.588-2.448-16.319-7.343-33.453-13.055-45.692l-3.264-8.159-8.159 4.080c-0.816 0.816-2.448 1.632-4.080 2.448-2.448 1.632-4.896 4.080-9.791 5.712 0-0.816 0-1.632-0.816-1.632-0.816-1.632-0.816-3.264-1.632-4.896-8.159-22.846-13.871-47.324-19.582-70.986-1.632-8.159-4.080-16.319-5.712-24.478v-0.816c-3.264-10.607-4.896-17.135-4.080-19.582 1.632-3.264 8.975-8.159 19.582-15.503l4.080-1.632c3.264-2.448 9.791-5.712 18.767-10.607 32.637-17.135 99.544-53.852 167.267-110.967 8.975-8.159 17.951-17.135 26.926-26.11 11.423-11.423 23.662-22.846 35.901-34.269 17.135-15.503 35.085-31.822 55.484-49.772l1.632-1.632 0.816-1.632c8.159-21.214 17.135-43.245 30.19-62.011 0 0 0.816-0.816 1.632-0.816s0.816 0 0.816 0.816c0 0 0 0 0 0.816-3.264 11.423-6.527 22.846-9.791 34.269-5.712 17.951-10.607 36.717-15.503 55.484l-2.448 10.607c-5.712 25.294-11.423 51.404-17.951 76.698-0.816 3.264-2.448 5.712-4.896 7.343-1.632 0.816-3.264 1.632-5.712 1.632-1.632 0-3.264 0-4.896-0.816l-5.712-1.632-3.264 4.080c-4.080 5.712-8.159 9.791-9.791 12.239-22.030 26.11-39.981 40.797-57.116 54.668-5.712 4.896-12.239 9.791-17.951 15.503-17.951 15.503-36.717 31.006-54.668 45.692-10.607 8.975-21.214 17.951-31.822 26.11-4.080 3.264-4.080 8.159-1.632 12.239 3.264 4.080 8.159 5.712 12.239 3.264 31.006-17.951 63.643-37.533 95.465-62.011 12.239-9.791 25.294-20.398 39.165-33.453 0.816 19.582 1.632 42.429 8.159 57.116 9.791 22.030 46.508 17.951 75.882 15.503 7.343-0.816 14.687-1.632 19.582-1.632 3.264 0 7.343 0 11.423 0 19.582 0 64.459-0.816 73.434 6.527s4.896 31.006 4.080 39.981v2.448c-0.816 4.896-7.343 13.871-11.423 18.767l-3.264 3.264 4.080 18.767 14.687 4.896c0.816 4.080 0.816 7.343 0.816 9.791-3.264 2.448-8.159 6.527-11.423 8.159l-24.478 14.687h28.558c5.712 0 12.239 0.816 14.687 2.448 0.816 1.632 0.816 4.896 0.816 7.343-3.264 4.080-8.975 12.239-8.975 19.582 0 14.687 16.319 15.503 30.19 16.319 2.448 0 4.080 0 6.527 0 10.607 0 17.951 0.816 24.478 7.343 4.080 4.080 4.080 5.712-0.816 16.319-0.816 2.448-2.448 4.896-3.264 7.343-2.448 6.527-8.975 18.767-14.687 31.006-6.527 12.239-12.239 24.478-14.687 31.822-4.080 10.607-13.055 32.637 0 48.14 7.343 8.159 8.975 23.662 4.896 40.797-1.632 5.712-3.264 13.055-4.896 21.214-1.632 7.343-3.264 16.319-4.896 24.478l-2.448 8.975 22.846 1.632c17.951 1.632 36.717 3.264 53.852 6.527 18.767 4.080 37.533 8.159 51.404 15.503 3.264 0.816 4.896 4.080 4.896 6.527s-1.632 4.080-2.448 4.080c-17.135 8.159-40.797 13.871-75.882 17.951-9.791 0.816-18.767 1.632-28.558 2.448-8.159 0.816-15.503 1.632-23.662 2.448-26.11-1.632-51.404-3.264-77.514-4.896-35.901-2.448-74.25-5.712-113.415-8.975-10.607-0.816-21.214-2.448-31.006-3.264-26.926-3.264-55.484-6.527-83.225-6.527-7.343 0-12.239 5.712-13.871 15.503-0.816 8.975 1.632 18.767 9.791 20.398 32.637 8.975 66.907 12.239 100.36 15.503l11.423 0.816c35.901 3.264 73.434 6.527 114.231 8.975 20.398 1.632 41.613 2.448 62.011 2.448 0 0.816 0 0.816-0.816 1.632-5.712 13.871-11.423 26.926-17.135 39.165-2.448 5.712-5.712 9.791-8.159 13.871-2.448 3.264-5.712 8.159-8.975 13.871-2.448 4.080-4.080 8.975-6.527 13.055-10.607 22.030-22.030 44.876-41.613 57.116-24.478 16.319-54.668 10.607-88.937 2.448-6.527-1.632-13.871-3.264-20.398-4.896-10.607-2.448-22.030-5.712-32.637-8.159-2.448-0.816-4.080-0.816-6.527-1.632h-1.632l-14.687 2.448c-22.846 3.264-47.324 7.343-70.171 7.343-31.006 0-53.852-8.159-69.355-25.294-20.398-22.030-31.006-50.588-39.165-72.618-9.791-28.558-16.319-56.3-21.214-80.778l-1.632-7.343c-4.080-17.951-8.159-35.901-8.975-53.852v-5.712l-5.712-1.632c-13.055-3.264-27.742-7.343-41.613-12.239l-4.080-1.632c-23.662-6.527-46.508-15.503-44.061-34.269z" />
<glyph unicode="&#xe91c;" glyph-name="man3" d="M836.692 622.845l-0.867 0.434c-19.399 9.32-41.616 13.728-76.296 20.158-11.524 2.131-24.168 4.263-38.437 6.539-11.596 38.004-45.879 117.226-86.014 148.474l-1.084 1.048c-14.018 9.072-31.151 14.465-49.545 14.465-0.578 0-1.155-0.005-1.731-0.016l0.087 0.001c-18.063 0-34.933-4.082-52.128-8.273-6.177-1.517-12.355-3.251-18.532-4.877-9.14-2.384-18.604-4.949-27.78-6.972l-0.867-0.217c-0.011 0-0.024 0-0.038 0-2.157 0-4.268-0.197-6.317-0.574-0.112 0.033-0.473 0.719-0.799 0.683-19.831 3.473-42.789 5.567-66.196 5.779l-1.032 0.001c-38.834 0-65.748-10.585-84.713-31.573-22.542-24.926-34.174-54.549-40.93-74.381-6.857-19.743-13.678-44.762-19.014-70.326l-2.263-11.1c-2.348-10.838-4.732-21.675-6.394-33.271-7.008-2.023-14.45-4.263-21.675-6.719l-3.36-1.084c-18.893-6.069-68.204-22.217-66.94-62.605v-1.228l0.253-1.192c6.033-30.128 35.366-32.513 67.482-32.513 4.769 0 9.609 0 14.45 0.397 6.105 0.325 14.017 0.795 21.675 1.373 5.092-27.385 14.8-51.77 28.368-73.496 10.828-18.875 18.342-31.953 14.766-67.174-1.484-8.251-3.262-15.299-5.464-22.157l-0.027 0.012c-4.118-15.1-13.15-42.628-19.869-52.201l-8.526-12.174 12.427-8.164c0.614-0.397 60.654-39.954 120.441-79.005 124.559-81.317 125.607-81.317 131.603-81.317 4.985 0.003 9.436 2.285 12.369 5.86 1.865 2.304 6.814 8.301 2.876 28.097l-0.903 4.588c-2.312 13.113-6.033 48.66-3.613 57.294 3.251 3.613 24.782-0.506 36.486-2.746 27.238-5.238 61.16-11.741 89.12 4.082l0.939 0.578c17.687 11.706 29.192 31.513 29.192 54.008 0 6.821-1.058 13.395-3.018 19.566-0.85 2.975-1.464 5.54-1.898 7.454 9.657 4.814 16.175 14.62 16.175 25.948 0 1.321-0.089 2.622-0.26 3.896 1.405 1.223 2.684 2.697 3.846 4.265 3.246 4.136 5.162 9.289 5.162 14.889 0 4.020-0.987 7.809-2.733 11.138-0.185 0.517-0.376 1.274-0.474 2.059 11.302 0.482 25.716 2.144 39.299 14.787 21.097 19.688 10.838 42.194 6.647 51.803-0.759 1.734-1.59 3.613-2.312 5.347-2.926 7.225-8.2 18.063-13.836 29.478-4.696 9.573-10.043 20.375-12.21 25.829-1.454 3.249-2.699 7.066-3.544 11.031 11.708 15.882 15.068 38.532 9.143 63.061-0.759 3.143-1.59 7.044-2.565 11.596 13.754 1.23 25.941 2.993 37.911 5.357 16.277 3.241 35.676 7.901 51.932 16.282 12.661 6.709 21.178 19.734 21.35 34.765 0.004 0.227 0.007 0.466 0.007 0.706 0 13.997-7.96 26.134-19.601 32.133zM821.628 581.048c-12.933-6.719-29.948-10.838-46.421-13.98-13.515-2.59-30.028-4.695-46.802-5.85l-18.187-1.483 3.36-16.003c0.723-3.396 1.409-6.719 2.059-9.826v-0.361c1.481-7.225 2.746-13.294 3.938-18.063 3.974-16.437 2.131-31.176-4.949-39.449-10.079-11.741-3.071-29.225 0.65-38.618 2.601-6.466 7.948-17.34 13.15-27.925s10.404-21.169 12.933-27.419c0.903-2.24 1.842-4.371 2.782-6.466 5.058-11.271 5.058-14.089 0-18.821-6.647-6.214-13.33-6.792-23.554-7.225-9.284 0.181-17.376-5.563-22.217-15.498-1.714-3.895-2.712-8.435-2.712-13.208 0-4.509 0.89-8.809 2.504-12.736-0.712-0.374-1.396-0.932-2.119-1.437l-19.565-5.312 12.897-16.726c-5.038-1.054-9.275-3.912-12.098-7.852-6.435-9.163-3.87-20.904-0.040-34.198 1.112-3.321 1.754-7.146 1.754-11.12 0-12.395-6.242-23.332-15.755-29.838-18.837-10.34-45.497-5.21-69.087-0.694-27.311 5.238-55.56 10.838-67.771-12.535l-0.361-0.759c-2.565-5.636-5.094-16.184-2.131-47.649 0.795-8.453 1.553-15.028 2.276-20.122-42.266 26.805-137.889 89.337-209.525 136.589 5.89 13.071 11.619 28.981 16.202 45.369l0.596 2.894c2.273 6.874 4.404 15.384 5.964 24.091l0.178 2.136c4.696 44.867-6.792 64.808-18.893 85.941-12.874 20.436-22.006 44.541-25.782 70.384l-0.337 2.191c-0.253 1.301-0.434 2.131-0.614 3.432l-2.095 13.547-13.619-1.409c-10.657-1.084-24.421-1.915-33.849-2.42-4.263-0.217-8.562-0.361-12.788-0.361-33.488 0-37.787 4.371-38.871 8.164 0.903 18.063 35.222 29.406 46.565 33.127l3.613 1.12c10.296 3.613 20.844 6.43 29.912 8.959l9.501 2.637 0.975 9.826c1.927 15.484 4.46 28.973 7.736 42.168l0.971 4.216c5.742 28.479 12.192 52.367 19.964 75.65 5.179 14.409 15.005 39.588 33.754 60.324 13.258 14.667 32.765 22.036 63.255 22.036h0.831c22.272-0.217 43.912-2.232 64.981-5.906-0.965 0.117 0.662-0.013 2.32-0.013s3.285 0.129 4.872 0.378c0.149-0.023 0.51-0.023 0.835-0.023l1.879-0.397 2.457 0.434 3.613 0.686c9.682 2.131 19.435 4.66 28.9 7.225 6.033 1.59 12.030 3.432 18.063 4.913 15.425 3.613 30.49 7.442 45.265 7.442v0c0.444 0.011 0.967 0.017 1.492 0.017 12.41 0 23.998-3.515 33.824-9.605 27.433-21.841 57.128-81.556 71.18-121.041-27.022 2.457-80.234 4.841-153.423-3.287-94.828-10.512-144.5-28.178-146.559-28.9l9.79-27.202c0.47 0 48.949 17.268 139.984 27.347 102.053 11.343 164.802 1.156 165.416 1.048v0l2.926-0.47c17.81-2.782 33.127-5.347 46.963-7.839 32.079-5.961 52.634-10.007 68.927-17.737 2.484-1.261 4.156-3.796 4.156-6.722 0-0.062-0.001-0.125-0.002-0.187-0.042-4.185-2.46-7.804-5.97-9.572z" />
<glyph unicode="&#xe91d;" glyph-name="woman3" d="M876.068 665.4c-5.166 33.199-57.8 36.631-102.992 35.908-10.838 0-22.578-0.831-33.777-1.445l-14.956-0.795-1.842 1.915c-14.739 16.401-49.238 54.802-76.332 74.056-30.201 21.494-56.933 32.513-89.337 37.1-12.725 1.602-27.451 2.517-42.39 2.517-23.333 0-46.146-2.231-68.235-6.49-57.103-11.235-98.9-30.49-133.833-62.135-19.146-17.521-38.726-38.148-52.273-70.588-7.929-18.333-15.565-40.66-21.57-63.646-23.116 2.414-50.752 5.773-62.168-17.419-7.225-14.45-3.324-28.575 11.127-41.941-2.616-3.082-4.221-7.093-4.263-11.479-0.253-10.016 6.394-17.855 20.952-24.032-14.853-7.697-27.654-16.217-39.419-25.944-7.969-6.23-13.277-16.293-13.277-27.597 0-4.436 0.818-8.682 2.311-12.594 4.345-11.264 15.308-19.281 28.144-19.281 0.81 0 1.612 0.032 2.405 0.095 16.757 1.191 32.372 3.757 47.469 7.617-3.688-4.997-5.346-10.5-6.529-16.177-9.616-47.622-7.34-109.431 57.288-137.284 37.1-15.967 75.574-11.813 101.15-5.636-8.441-22.065-17.114-40.459-26.952-58.115-0.033 0.243-9.389-13.702-17.734-26.056l-8.417-12.644 150.388-93.022c4.632-3.177 10.253-5.244 16.324-5.701 1.951-0.004 3.714 0.313 5.353 0.894 9.969 3.326 12.75 13.079 15.207 21.641 16.292 57.041 29.334 98.188 34.933 110.073 11.018 23.445 45.337 19.038 100.536 9.031l7.008-1.264c30.67-5.527 49.816 2.24 60.509 9.682 9.474 6.254 16.344 15.797 19.013 26.971 2.626 15.079-2.359 29.204-5.358 37.91-0.397 1.156-0.939 2.673-1.192 3.613l1.698 0.686c4.793 1.729 8.935 4.103 12.576 7.069 4.764 4.13 11.808 14.064 4.475 33.608-0.181 0.47-0.361 0.975-0.578 1.445 4.676 5.336 7.528 12.371 7.528 20.073 0 1.984-0.189 3.924-0.551 5.803-1.173 5.152-3.907 9.731-7.681 13.194l-0.019 0.017c2.818 0.686 6.033 1.445 9.573 2.457 13.728 3.902 19.652 11.957 22.217 18.063 4.227 10.079 2.601 22.145-4.805 35.872l-0.47 0.903c-29.406 54.188-31.971 68.638-31.682 72.25 0.77 7.447 2.35 14.266 4.671 20.732 1.368 3.473 2.629 8.269 3.373 13.234 0.915 8.842 0.048 18.199-2.842 36.767 5.961 2.023 11.994 4.118 18.063 6.43 76.766 30.020 111.879 43.711 107.183 73.659zM493.432 112.904v0zM733.338 610.021l-15.136-5.021 2.023-12.21c3.613-22.217 5.347-33.994 4.66-40.894-0.575-3.252-1.351-6.104-2.354-8.848-2.603-7.296-4.618-16.213-5.553-25.45-1.305-15.121 8.847-40.806 35.037-89.142l0.47-0.903c2.053-3.061 3.367-6.774 3.61-10.776-1.011-0.838-2.228-1.406-3.553-1.677-3.164-0.913-5.909-1.563-8.366-2.141-9.754-2.312-24.529-5.816-25.902-23.626-0.939-12.138 6.647-19.652 10.838-23.698l0.723-0.723v-0.181c-1.464-1.411-3.141-2.616-4.976-3.558l-32.956-13.71 32.513-12.644c0.241-0.187 0.513-0.367 0.798-0.525 0.346-0.813 0.668-1.825 0.931-2.86l-1.693-0.913c-3.396-1.27-6.313-2.741-9.041-4.485-9.817-6.57-12.237-19.502-10.214-28.786 0.731-2.908 1.511-5.317 2.425-7.658 2.055-5.853 5.378-15.318 4.078-22.651-0.903-4.154-11.849-19.652-46.023-13.511l-6.972 1.264c-54.188 9.862-110.579 20.049-131.856-25.288-8.381-17.81-25.613-76.152-35.692-111.41l-119.574 73.948c5.383 8.020 10.585 15.859 11.632 17.701 13.832 25 26.715 54.305 36.961 84.822l11.086 35.005-29.767-13.655c-0.578-0.253-56.897-25.577-107.291-3.865s-47.432 70.046-40.496 104.329c3.197 14.196 9.62 26.567 18.475 36.77l31.269 38.225-46.963-15.136c-30.092-9.645-52.201-14.45-73.912-15.714-1.445 0-1.553 0.217-1.806 0.903-0.153 0.53-0.241 1.139-0.241 1.769 0 2.256 1.131 4.249 2.856 5.442 18.085 14.717 29.789 21.256 68.66 38.993l43.025 19.58-46.637 7.803c-4.227 0.723-8.020 1.445-11.379 2.168l26.335 3.107-39.196 21.675c-18.063 10.043-23.048 16.798-21.675 19.724s9.754 4.371 41.327-5.166l14.45-4.407 3.613 14.703c7.057 30.137 15.613 56.065 26.146 80.951 10.665 25.256 28.258 42.741 43.828 56.902 30.634 27.852 68.312 44.976 122.175 55.488 18.47 3.649 39.705 5.736 61.429 5.736 13.206 0 26.233-0.772 39.036-2.272 26.334-3.753 48.515-13.037 75.031-31.895 18.315-13.005 41.399-36.848 57.8-54.621-26.696-2.348-70.769-7.622-134.060-19.435-112.855-21.025-145.62-40.243-146.957-41.038l14.703-24.89c0.289 0 31.609 17.629 137.492 37.389 86.7 16.22 137.275 19.797 154.001 20.591v0l5.527 0.217h0.831c7.225 0.289 14.45 0.686 21.964 1.12 10.838 0.614 22.217 1.264 32.513 1.409 64.050 1.012 73.153-10.043 73.948-11.343-3.938-9.104-49.202-26.769-89.193-42.339-7.948-3.107-16.112-5.816-24.782-8.67z" />
<glyph unicode="&#xe91e;" glyph-name="gift" d="M650.25 658.501c51.695 14.45 91.396 33.705 111.807 59.498l8.959 12.138-22.65 18.352-8.959-11.127c-18.641-23.662-62.243-42.086-118.057-51.912 1.59 1.264 3.179 2.637 4.732 4.010 35.511 31.573 46.096 77.705 23.59 102.992-9.408 9.961-22.707 16.162-37.454 16.162-0.803 0-1.602-0.018-2.396-0.055-20.984 0.004-45.044-9.388-65.346-27.415-11.126-9.819-20.219-21.649-26.763-34.957-7.134 13.308-16.227 25.137-27.23 34.852-20.424 18.168-44.483 27.524-65.58 27.524-0.682 0.032-1.48 0.051-2.284 0.051-14.747 0-28.046-6.201-37.431-16.138-22.023-24.77-12.306-69.421 21.363-100.886-41.688 10.549-73.767 26.371-89.157 45.987l-8.959 11.343-22.65-18.063 8.959-12.897c20.411-25.793 60.076-45.048 111.807-59.498h-247.601v-184.238h61.413v-390.15h603.288v390.15h57.8v184.238zM539.311 720.888c4.322 15.566 12.927 28.746 24.458 38.601 14.304 12.697 31.608 20.211 46.383 20.211 5.599 0 13.258-1.12 18.063-6.394 10.151-11.416 3.251-40.46-21.205-62.171-14.197-12.608-31.501-20.122-46.276-20.122-5.599 0-13.258 1.12-18.063 6.394-6.033 6.828-4.696 17.629-3.36 23.481zM407.129 773.306c4.696 5.274 12.355 6.394 18.063 6.394 14.775 0 32.079-7.514 46.276-20.122 24.457-21.675 31.357-50.575 21.205-62.171-4.696-5.274-12.355-6.394-18.063-6.394-14.775 0-32.079 7.514-46.276 20.122-24.457 21.711-31.357 50.72-21.205 62.171zM505.75 113.013h-256.488v361.25h256.488zM505.75 503.163h-317.9v126.438h317.9zM794.751 113.013h-260.1v361.25h260.1zM852.551 503.163h-317.9v126.438h317.9z" />
<glyph unicode="&#xe91f;" glyph-name="eye2" d="M512 672v0 0c288 0 416-224 416-224s-128-224-416-224c-288 0-416 224-416 224s128 224 416 224zM512 640c-256 0-377.602-192-377.602-192s121.602-192 377.602-192c256 0 377.602 192 377.602 192s-121.602 192-377.602 192v0 0zM512 320v0 0c-70.692 0-128 57.308-128 128s57.308 128 128 128c70.692 0 128-57.308 128-128s-57.308-128-128-128zM512 352c53.019 0 96 42.981 96 96s-42.981 96-96 96c-53.019 0-96-42.981-96-96s42.981-96 96-96v0 0zM512 416c17.673 0 32 14.327 32 32s-14.327 32-32 32c-17.673 0-32-14.327-32-32s14.327-32 32-32v0 0z" />
<glyph unicode="&#xe920;" glyph-name="eye-blocked2" d="M259.478 291.478c-111.728 65.958-163.478 156.522-163.478 156.522s128 224 416 224c41.744 0 80.127-4.706 115.246-12.754l-27.185-27.185c-27.352 5.057-56.698 7.939-88.061 7.939-256 0-377.602-192-377.602-192s48.473-76.535 148.639-132.962l-23.559-23.559zM396.754 236.754c35.119-8.048 73.502-12.754 115.246-12.754 288 0 416 224 416 224s-51.751 90.564-163.478 156.522l-23.559-23.559c100.166-56.427 148.639-132.962 148.639-132.962s-121.602-192-377.602-192c-31.363 0-60.709 2.882-88.061 7.939l-27.185-27.185zM636.757 476.757c2.122-9.244 3.243-18.869 3.243-28.757 0-70.692-57.308-128-128-128-9.888 0-19.513 1.121-28.757 3.243l28.757 28.757c24.569 0 49.137 9.373 67.882 28.118s28.118 43.314 28.118 67.882l28.757 28.757zM540.757 572.757c-9.244 2.122-18.869 3.243-28.757 3.243-70.692 0-128-57.308-128-128 0-9.888 1.121-19.513 3.243-28.757l28.757 28.757c0 24.569 9.373 49.137 28.118 67.882s43.314 28.118 67.882 28.118l28.757 28.757zM768 736l-544-544 32-32 544 544-32 32z" />
<glyph unicode="&#xe921;" glyph-name="uniE921" horiz-adv-x="1755" d="M556.471 322.743h-66.597l41.618 255.817h66.615zM433.829 578.56l-63.488-175.945-7.515 37.888-22.4 115.035s-2.688 23.040-31.598 23.040h-104.978l-1.225-4.334s32.11-6.674 69.687-29.257l57.838-222.245h69.394l106.057 255.817zM949.906 360.741h-84.663l-13.897-37.998h-69.486l99.383 236.8s6.034 19.054 30.757 19.054h53.486l53.321-255.817h-61.093zM939.118 413.257l-19.712 95.726-34.981-95.726zM787.145 517.083l9.509 54.857s-29.257 11.154-59.904 11.154c-33.061 0-111.543-14.446-111.543-84.681 0-66.103 92.142-66.926 92.142-101.614s-82.633-28.507-109.915-6.619l-9.929-57.381s29.733-14.464 75.191-14.464 114.030 23.607 114.030 87.607c0 66.505-92.965 72.722-92.965 101.632s64.878 25.179 93.367 9.49zM1170.743 433.993c0.032 0 0.071 0 0.109 0 1.251 0 2.482-0.086 3.687-0.254-0.414-9.127-5.15-15.308-11.696-15.308-3.511 0-5.76 2.432-5.76 6.254-0.091 6.144 4.517 9.289 13.641 9.289zM1297.792 447.342c0 4.992-2.816 7.899-7.607 7.899-5.12 0-8.777-3.913-10.277-10.971h17.737c0.073 1.189 0.128 2.249 0.128 3.054zM1350.638 422.071q-0.622-3.858-1.426-7.643c-1.372-6.37-2.852-11.644-4.607-16.791l-81.884 1.047c2.143-6.371 4.277-11.57 6.69-16.61l69.214 0.884c-2.931-6.234-5.777-11.388-8.905-16.346l-52.115 0.62c3.744-5.987 7.456-11.124 11.47-16.003l29.691 0.259c-4.719-5.712-9.611-10.847-14.84-15.62-26.376-23.979-61.421-38.596-99.881-38.596-82.034 0-148.535 66.501-148.535 148.535s66.501 148.535 148.535 148.535c38.442 0 73.473-14.604 99.849-38.566-5.462-4.772-10.348-9.913-14.856-15.378l29.728-0.256c3.824-4.619 7.547-9.75 10.938-15.112l-52.118-0.614c-2.784-4.356-5.636-9.516-8.176-14.853l69.214-0.891c2.027-4.162 4.149-9.362 5.969-14.702l-81.873-1.023c-1.444-4.086-2.924-9.34-4.114-14.705l90.605-0.984c0.978-4.263 1.86-9.614 2.448-15.053 0.057-1.295 0.149-1.935 0.204-2.575-2.491-6.344-3.935-13.691-3.935-21.375 0-0.245 0.001-0.489 0.004-0.733-0.004-0.159-0.005-0.391-0.005-0.623 0-5.34 0.988-10.449 2.791-15.155zM1134.702 406.455l12.434 75.355h-24.997l-15.598-46.61-0.64 46.647h-23.15l-12.581-75.355h15.067l9.673 57.582 1.371-57.582h10.971l20.59 57.911-9.143-57.911zM1187.456 417.28l3.365 21.723c0.734 3.602 1.202 7.786 1.297 12.061 0.001 11.82-7.313 18.055-21.137 18.055-6.917-0.098-13.524-1.282-19.704-3.388l-1.782-13.636 1.445 0.384 2.231 0.658c3.959 1.080 8.505 1.701 13.196 1.701 0.054 0 0.107 0 0.161 0 7.507 0 10.323-1.499 10.323-5.486-0.032-1.433-0.264-2.8-0.668-4.091-1.92 0.385-4.188 0.557-6.492 0.58-17.873 0-28.278-8.686-28.278-23.607 0-9.911 5.979-16.75 14.629-16.75 7.314 0 12.8 2.377 16.878 7.406l-0.311-6.363h13.33l0.183 1.664 0.293 2.121 0.421 3.109zM1212.343 449.573c0 3.31 2.67 5.010 7.863 5.010 4.128-0.064 8.119-0.4 12.027-0.994l1.815 14.251c-4.175 0.668-9.066 1.103-14.040 1.205-18.088 0.002-24.305-9.415-24.251-20.716 0-7.753 3.749-13.074 12.233-17.097 6.51-3.072 7.515-3.968 7.515-6.747 0-3.822-2.853-5.486-9.143-5.486-5.159 0.022-10.104 0.911-14.705 2.528l-1.916-14.231 0.713-0.146 2.944-0.622c1.176-0.229 2.617-0.417 4.081-0.523q5.848-0.519 8.975-0.519c16.951 0 24.795 6.455 24.795 20.443 0 8.411-3.273 13.349-11.337 17.061-6.857 3.054-7.57 3.73-7.57 6.583zM1264.841 467.694h-8.21l1.829 9.143h-16l-6.985-41.801-0.75-4.846-0.987-5.998c-0.291-1.642-0.463-3.539-0.475-5.474 0-8.715 4.498-13.47 12.8-13.47 4.15 0.042 8.118 0.768 11.813 2.072l1.883 13.471c-1.148-0.366-2.469-0.577-3.838-0.577-0.181 0-0.36 0.004-0.539 0.011-3.796-0.001-5.46 1.371-5.46 4.534 0.024 0.908 0.122 1.777 0.29 2.621l4.208 25.502h8.247zM1278.574 429.915c0.009 0.653 0.062 1.286 0.156 1.905l31.972-0.076c1.188 4.515 1.91 9.715 1.993 15.070 0.001 13.657-8.447 22.324-21.705 22.324-16.183 0-28.105-15.488-28.105-36.571 0-18.030 9.362-27.429 27.429-27.429 0.061 0 0.133 0 0.204 0 5.803 0 11.394 0.91 16.637 2.594l2.285 15.198c-4.876-2.454-10.626-3.892-16.712-3.895-9.436 0.128-14.209 3.749-14.209 10.88zM1350.802 468.114l-0.603 0.146c-0.463 0.093-0.995 0.147-1.54 0.147-0.031 0-0.061 0-0.092-0.001-5.262 0-8.279-2.706-13.198-9.947l1.408 9.289h-14.629l-9.819-61.294h16.091c5.742 37.486 7.314 43.886 14.994 43.886 0.178 0.019 0.385 0.030 0.594 0.030s0.416-0.011 0.62-0.032c1.177 6.677 3.334 12.641 6.327 18.080z" />
<glyph unicode="&#xe922;" glyph-name="money" d="M601.951 127.571l-159.564 116.178v36.486l160.901-117.19 278.452 236.149-18.677 22.036-261.148-221.446-159.564 116.178v43.567l160.251-116.684 269.782 228.78-171.558 127.666 24.926 21.133-164.802 121.886-24.348-20.736-112.168 83.629-273.828-233.006 125.607-91.577v-43.531l-117.262 85.363-17.051-23.373 134.168-97.79v-36.486l-117.117 85.4-17.051-23.373 134.168-97.79v-15.245l166.175-122.428v16.618l161.045-117.19 278.452 236.149-18.713 22.036zM825.926 470.181l-224.662-190.56-148.763 108.375 225.818 192.113zM562.105 705.463l117.081-86.7-265.7-225.926v-144.247l-108.375 79.872v159.347zM197.243 573.968l228.31 194.317 88.362-65.784-227.913-193.161z" />
<glyph unicode="&#xe923;" glyph-name="uniE923" horiz-adv-x="1755" d="M1297.627 444.69h-17.737c1.499 7.058 5.138 10.971 10.277 10.971 4.791 0 7.607-2.907 7.607-7.899 0-0.75-0.055-1.792-0.146-3.072zM1410.487 425.143c0-3.822 2.267-6.254 5.778-6.254 6.565 0 11.282 6.254 11.557 15.323-1.066 0.151-2.298 0.238-3.55 0.238-0.038 0-0.075 0-0.113 0-9.046 0.018-13.672-3.127-13.672-9.307zM1505.207 454.016c-7.314 0-12.489-8.539-12.489-20.59 0-8.009 2.761-12.087 8.247-12.087 7.497 0 12.8 8.521 12.8 20.663-0.037 7.826-3.017 12.014-8.558 12.014zM1540.206 411.429c0-2.020-1.637-3.657-3.657-3.657s-3.657 1.637-3.657 3.657c0 2.020 1.637 3.657 3.657 3.657s3.657-1.637 3.657-3.657zM1538.377 409.326l-0.786 1.829c0.432 0.173 0.732 0.588 0.732 1.073 0 0.009 0 0.017 0 0.026 0 0.005 0 0.011 0 0.018 0 0.43-0.216 0.81-0.545 1.038-0.27 0.144-0.585 0.228-0.919 0.228-0.051 0-0.102-0.002-0.152-0.006h-1.822v-4.224h1.115v1.664h0.713l0.64-1.664zM1536.439 412.8h-0.439v-1.079h0.549c0.091-0.024 0.195-0.038 0.302-0.038s0.211 0.014 0.31 0.040c0.136 0.106 0.229 0.277 0.229 0.469 0 0.002 0 0.003 0 0.005s0 0.006 0 0.009c0 0.176-0.086 0.332-0.218 0.429-0.167 0.077-0.36 0.121-0.563 0.121-0.060 0-0.119-0.004-0.177-0.011zM1551.543 445.879c0-0.076 0-0.166 0-0.255 0-81.862-66.362-148.224-148.224-148.224-70.646 0-129.749 49.424-144.618 115.581l0.965 8.304c-0.724-0.251-1.564-0.427-2.435-0.492-1.382 7.54-2.153 16.222-2.155 25.085 0 2.506 0 4.975 0.183 7.444h7.314l2.213 14.903h-8.027c0.256 1.646 0.512 3.31 0.823 4.937l0.841 4.151c14.861 67.398 74.086 117.077 144.915 117.077 81.862 0 148.224-66.362 148.224-148.224 0-0.107 0-0.214 0-0.321zM1278.537 430.464c0.009 0.653 0.062 1.286 0.156 1.905l31.972-0.076c1.188 4.515 1.91 9.715 1.993 15.070 0.001 13.657-8.447 22.324-21.705 22.324-16.183 0-28.105-15.488-28.105-36.571 0-18.030 9.362-27.429 27.429-27.429 0.061 0 0.133 0 0.204 0 5.803 0 11.394 0.91 16.637 2.594l2.285 15.198c-4.876-2.454-10.626-3.892-16.712-3.895-9.4 0.091-14.172 3.712-14.172 10.843zM1344.713 450.816c1.169 6.676 3.296 12.649 6.261 18.101l-0.757-0.163c-0.463 0.093-0.995 0.147-1.54 0.147-0.031 0-0.061 0-0.092-0.001-5.262 0-8.279-2.706-13.198-9.947l1.408 9.289h-14.629l-9.819-61.294h16.091c5.742 37.486 7.314 43.886 14.994 43.886 0.113 0.008 0.244 0.012 0.377 0.012 0.312 0 0.619-0.024 0.918-0.071zM1393.115 424.96c-3.947-2.221-8.625-3.622-13.608-3.856-9.414-0.003-15.082 6.909-15.082 18.283 0 16.567 8.411 28.215 20.443 28.215 5.312-0.164 10.243-1.65 14.519-4.138l2.487 16.426c-1.426 0.585-1.829 0.75-3.895 1.481l-6.601 1.664c-2.050 0.501-4.403 0.789-6.824 0.789-0.134 0-0.267-0.001-0.401-0.003-21.319 0-36.222-18.834-36.222-45.714 0-20.114 10.807-32.512 28.123-32.512 5.082 0.038 9.965 0.831 14.561 2.271zM1444.315 439.497c0.728 3.597 1.195 7.781 1.297 12.055 0.002 11.826-7.313 18.062-21.118 18.062-6.921-0.127-13.517-1.335-19.685-3.463l-1.782-13.635 1.445 0.384 2.249 0.658c3.954 1.080 8.494 1.701 13.18 1.701 0.059 0 0.119 0 0.178 0 7.506 0 10.322-1.499 10.322-5.486-0.037-1.435-0.269-2.801-0.669-4.093-1.918 0.387-4.187 0.559-6.49 0.582-17.893 0-28.279-8.685-28.279-23.607 0-9.911 5.979-16.75 14.629-16.75 7.314 0 12.8 2.377 16.878 7.406l-0.329-6.363h13.349l0.183 1.664 0.293 2.121 0.421 3.109 0.549 3.913zM1475.986 450.889c0.164 0.017 0.355 0.027 0.549 0.027s0.384-0.010 0.572-0.029c1.162 6.673 3.294 12.639 6.257 18.087l-0.703-0.165c-0.466 0.093-1.001 0.147-1.549 0.147-0.021 0-0.042 0-0.063 0-5.281 0-8.28-2.706-13.217-9.947l1.408 9.289h-14.629l-9.801-61.294h16.219c5.742 37.339 7.314 43.849 14.976 43.849zM1524.681 407.003l12.251 75.355h-15.872l-3.493-21.559c-4.407 5.815-9.143 8.393-15.415 8.393-14.19 0-26.185-17.189-26.185-37.577 0-15.323 7.735-25.435 19.438-25.435 0.081-0.001 0.177-0.002 0.273-0.002 5.85 0 11.086 2.632 14.588 6.776l-0.763-5.988zM1541.321 411.483c0 2.646-2.145 4.791-4.791 4.791s-4.791-2.145-4.791-4.791c0-2.646 2.145-4.791 4.791-4.791 0.006 0 0.012 0 0.019 0 2.63 0 4.767 2.112 4.809 4.732z" />
<glyph unicode="&#xe924;" glyph-name="PayPal" horiz-adv-x="1755" d="M1041.627 531.383h-66.121c-0.032 0-0.069 0.001-0.106 0.001-4.559 0-8.339-3.337-9.030-7.702l-26.74-169.597c-0.045-0.264-0.071-0.568-0.071-0.878 0-3.030 2.456-5.486 5.486-5.486 0.025 0 0.050 0 0.075 0h33.916c3.211 0.011 5.867 2.37 6.341 5.45l7.538 48.036c0.698 4.417 4.478 7.754 9.037 7.754 0.037 0 0.075 0 0.112-0.001h20.913c43.557 0 68.699 21.083 75.264 62.848 2.962 18.286 0.128 32.622-8.43 42.679-9.399 11.045-26.075 16.896-48.183 16.896zM1049.253 469.467c-3.657-23.771-21.742-23.771-39.278-23.771h-9.984l7.003 44.361c0.422 2.647 2.688 4.645 5.421 4.645 0.023 0 0.046 0 0.068 0h4.568c11.941 0 23.205 0 29.019-6.802 3.529-4.078 4.498-10.112 3.182-18.45zM570.002 531.383h-66.121c-0.032 0-0.069 0.001-0.106 0.001-4.559 0-8.339-3.337-9.030-7.702l-26.631-169.615c-0.045-0.264-0.071-0.568-0.071-0.878 0-3.030 2.456-5.486 5.486-5.486 0.025 0 0.050 0 0.075 0h31.576c0.032 0 0.069-0.001 0.106-0.001 4.559 0 8.339 3.337 9.030 7.702l7.23 45.766c0.698 4.417 4.478 7.754 9.037 7.754 0.037 0 0.075 0 0.112-0.001h20.913c43.557 0 68.699 21.083 75.264 62.848 2.962 18.286 0.128 32.622-8.43 42.679-9.655 11.081-26.313 16.933-48.439 16.933zM577.627 469.467c-3.657-23.771-21.742-23.771-39.278-23.771h-9.893l6.93 44.361c0.422 2.647 2.688 4.645 5.421 4.645 0.023 0 0.046 0 0.068 0h4.568c11.941 0 23.205 0 29.019-6.802 3.365-4.078 4.48-10.112 3.163-18.45zM767.634 470.235h-31.653c-0.019 0-0.042 0-0.065 0-2.733 0-4.999-1.998-5.417-4.614l-1.394-8.882-2.213 3.2c-6.857 9.947-22.144 13.275-37.394 13.275-34.981 0-64.859-26.514-70.674-63.689-3.035-18.542 1.262-36.279 11.794-48.64 9.655-11.374 23.442-16.091 39.881-16.091 0.195-0.002 0.425-0.004 0.656-0.004 16.922 0 32.225 6.934 43.222 18.116l-1.4-8.787c-0.047-0.27-0.074-0.58-0.074-0.896 0-3.030 2.456-5.486 5.486-5.486 0.026 0 0.052 0 0.078 0.001h28.504c0.032 0 0.069-0.001 0.106-0.001 4.559 0 8.339 3.337 9.030 7.702l17.122 108.45c0.042 0.254 0.065 0.546 0.065 0.844 0 3.030-2.456 5.486-5.486 5.486-0.062 0-0.123-0.001-0.184-0.003zM723.511 408.613c-2.559-17.205-17.229-30.253-34.946-30.253-0.276 0-0.551 0.003-0.825 0.009-9.102-0.001-16.416 2.962-21.225 8.539s-6.455 13.44-4.955 22.235c2.523 17.316 17.269 30.466 35.087 30.466 0.136 0 0.272-0.001 0.408-0.002 8.976 0 16.272-2.98 21.081-8.631s6.766-13.641 5.376-22.382zM1239.168 470.235h-31.579c-0.019 0-0.042 0-0.065 0-2.733 0-4.999-1.998-5.417-4.614l-1.394-8.882-2.213 3.2c-6.857 9.947-22.144 13.275-37.394 13.275-34.981 0-64.859-26.514-70.674-63.689-3.035-18.542 1.262-36.279 11.794-48.64 9.655-11.374 23.442-16.091 39.881-16.091 0.195-0.002 0.425-0.004 0.656-0.004 16.922 0 32.225 6.934 43.222 18.116l-1.4-8.787c-0.047-0.27-0.074-0.58-0.074-0.896 0-3.030 2.456-5.486 5.486-5.486 0.026 0 0.052 0 0.078 0.001h28.504c0.032 0 0.069-0.001 0.106-0.001 4.559 0 8.339 3.337 9.030 7.702l17.122 108.45c0.042 0.253 0.065 0.546 0.065 0.843 0 3.030-2.456 5.486-5.486 5.486-0.055 0-0.11-0.001-0.165-0.002zM1195.045 408.613c-2.551-17.213-17.225-30.272-34.948-30.272-0.275 0-0.549 0.003-0.823 0.009-9.102-0.001-16.416 2.962-21.226 8.539s-6.455 13.44-4.955 22.235c2.523 17.316 17.269 30.466 35.087 30.466 0.136 0 0.272-0.001 0.408-0.002 8.976 0 16.272-2.98 21.081-8.631s6.857-13.623 5.467-22.363zM940.727 461.641l-105.838-152.759c-1.672-2.399-4.417-3.95-7.525-3.95-0.010 0-0.019 0-0.029 0h-31.706c-0.017 0-0.036 0-0.056 0-3.030 0-5.486 2.456-5.486 5.486 0 1.209 0.391 2.327 1.054 3.234l32.903 46.485-35.035 102.857c-0.199 0.545-0.314 1.173-0.314 1.829 0 3.030 2.456 5.486 5.486 5.486 0.014 0 0.028 0 0.042 0h31.285c0.009 0 0.019 0 0.029 0 4.124 0 7.61-2.73 8.749-6.482l18.613-62.236 43.886 64.658c1.667 2.441 4.436 4.023 7.575 4.023 0.011 0 0.023 0 0.034 0h31.834c0.039 0.001 0.084 0.002 0.13 0.002 3.030 0 5.486-2.456 5.486-5.486 0-1.21-0.392-2.328-1.055-3.235zM1281.938 531.456h30.537c0.021 0 0.046 0 0.071 0 3.030 0 5.486-2.456 5.486-5.486 0-0.31-0.026-0.614-0.075-0.91l-26.748-169.513c-0.698-4.417-4.478-7.754-9.037-7.754-0.037 0-0.075 0-0.112 0.001h-27.185c-0.021 0-0.046 0-0.071 0-3.030 0-5.486 2.456-5.486 5.486 0 0.31 0.026 0.614 0.075 0.91l27.132 172.622c0.453 2.612 2.702 4.572 5.409 4.572 0.033 0 0.067 0 0.1-0.001z" />
<glyph unicode="&#xe925;" glyph-name="SofortPPRO" horiz-adv-x="1755" d="M349.787 470.583h126.373c9.984 0 24.466 20.974 4.498 25.966s-46.958 10.496-48.457 31.963 12.983 49.371 21.943 59.447 21.486 23.973 45.952 23.973h129.371c-9.997-7.092-18.764-14.693-26.738-23.059-6.048-6.562-11.481-13.74-16.183-21.414l-75.936-0.601c-8.485 0-13.989-8.485-13.989-12.983s2.505-9.49 13.989-12.489 31.963-9.984 38.4-20.974 5.486-28.471-2.999-46.958-25.472-40.96-47.543-45.952-27.429-5.486-53.943-5.486h-111.726zM747.374 572.983c-2.505 24.978-19.986 42.953-55.936 41.966-42.057-1.17-64-17.975-87.406-45.952s-36.955-64.933-38.4-84.919 1.993-41.966 18.981-54.437 47.945-13.989 72.43-6.491 49.957 31.47 66.432 59.941 26.514 63.872 23.899 89.893zM689.371 536.027c-7.497-25.966-23.973-64-34.469-69.925s-22.473-6.491-29.97 0-5.486 19.474 0 37.961 22.985 52.443 30.976 59.941 13.495 8.485 20.974 8.485c17.554 0 20.041-10.496 12.489-36.462zM1063.662 572.983c-2.505 24.978-19.986 42.953-55.936 41.966-42.057-1.17-64-17.975-87.406-45.952s-36.955-64.933-38.4-84.919 1.993-41.966 18.981-54.437 47.945-13.989 72.43-6.491 49.957 31.47 66.432 59.941 26.496 63.872 23.899 89.893zM1005.714 536.027c-7.497-25.966-23.973-64-34.469-69.925s-22.473-6.491-29.97 0-5.486 19.474 0 37.961 22.985 52.443 30.976 59.941 13.495 8.485 20.974 8.485c17.499 0 19.986-10.496 12.489-36.462zM720.091 421.705s48.274 135.79 56.686 156.27 26.478 34.962 64.439 34.962h107.392c-10.612-6.914-19.859-14.261-28.363-22.379-6.996-6.638-13.114-14.246-18.124-22.595l-63.831-0.484c-5.998 0-9.49-2.999-11.995-8.997s-6.491-21.943-6.491-21.943h49.957l-12.983-40.466h-53.449l-25.966-74.423zM1229.422 577.829c-1.17 18.597-19.767 34.103-48.055 34.103h-74.039l-70.034-190.665 58.514 0.091 25.801 66.542 16.274-66.67h60.471s-4.645 20.535-11.246 43.41c-4.144 14.621-9.158 27.226-15.275 39.172 12.865 3.902 23.489 10.121 33.113 17.569 16.337 12.561 25.681 37.777 24.475 56.447zM1173.943 552.667c-4.078-12.233-13.696-23.314-23.022-25.070s-22.437-0.293-22.437-0.293l16.329 45.184h19.237c7.899-0.018 14.025-7.589 9.893-19.822zM1226.167 612.407h189.147l-16.329-46.043h-69.358l-52.169-145.152h-53.029l52.754 145.426h-34.743s3.2 15.451-2.615 28.562-13.659 17.207-13.659 17.207zM418.103 375.479q12.014 0 16.457-5.486t2.853-15.36c-0.43-2.695-1.202-5.117-2.281-7.363-1.096-2.263-2.475-4.35-4.094-6.222-1.599-1.84-3.465-3.45-5.536-4.767-2.091-1.333-4.432-2.251-6.945-2.661l-0.107-0.252c3.422-1.036 6.192-3.33 7.828-6.331 1.18-2.361 1.85-5.062 1.85-7.92 0-1.345-0.149-2.656-0.43-3.916-1.265-7.941-5.523-14.824-11.573-19.504-2.957-2.28-6.304-4.099-9.92-5.338-3.625-1.233-7.52-1.903-11.571-1.903-0.113 0-0.226 0.001-0.339 0.002h-40.449l31.397 87.022zM394.149 298.203c1.966 0.032 3.865 0.184 5.727 0.449 2.331 0.332 4.655 1.103 6.767 2.222 2.404 1.274 4.53 3.009 6.258 5.086 2.076 2.627 3.47 5.825 3.912 9.321 0.203 0.944 0.313 1.92 0.313 2.922 0 1.385-0.211 2.721-0.603 3.977-0.555 1.542-1.63 2.883-3.017 3.782-1.488 0.916-3.203 1.559-5.037 1.837-1.9 0.312-4.002 0.485-6.145 0.485-0.071 0-0.143 0-0.214-0.001h-23.376l-10.971-30.098zM406.437 338.066q17.39 0 20.114 16.585c0.166 0.669 0.261 1.436 0.261 2.226 0 1.398-0.298 2.726-0.834 3.924-0.742 1.374-1.911 2.508-3.332 3.211-1.492 0.737-3.176 1.236-4.954 1.422-1.643 0.19-3.474 0.297-5.329 0.298h-20.116l-10.075-27.666zM512 375.479l0.421-87.022h-11.209l0.549 26.203h-34.414l-18.633-26.203h-12.014l63.451 87.022zM501.979 324.407l0.658 40.832h-0.238l-28.599-40.832zM574.757 375.479l17.298-72.027h0.219l25.49 72.027h10.533l-31.634-87.022h-11.666l-17.152 71.552h-0.238l-25.6-71.552h-10.533l31.634 87.022zM668.032 375.479l-15.653-42.898 0.183-0.238 53.266 43.136h14.629l-45.275-35.84 17.774-51.2h-12.014l-15.031 44.123-18.798-14.757-10.77-29.349h-10.88l31.634 87.022zM755.675 375.479l-31.561-87.022h-10.88l31.525 87.022zM797.678 375.479l17.298-72.027h0.219l25.49 72.027h10.533l-31.634-87.022h-11.666l-17.152 71.552h-0.238l-25.6-71.552h-10.533l31.634 87.022zM900.206 289.061c-4.011-1.584-8.656-2.52-13.515-2.56q-16.839 0-24.3 9.929t-4.462 28.105c1.266 7.535 3.501 14.291 6.609 20.537 2.969 6.056 6.861 11.62 11.484 16.483 4.475 4.704 9.791 8.611 15.704 11.478 5.942 2.877 12.546 4.476 19.524 4.476 0.096 0 0.193 0 0.289-0.001 0.111 0.001 0.259 0.002 0.407 0.002 4.292 0 8.44-0.622 12.356-1.781 3.423-0.987 6.643-2.816 9.312-5.242 2.53-2.419 4.436-5.509 5.431-8.983 0.654-2.368 1.009-4.924 1.009-7.563 0-1.987-0.202-3.928-0.586-5.802l-10.83 0.185c0.225 1.083 0.354 2.328 0.354 3.602 0 1.797-0.256 3.534-0.734 5.177-0.704 2.259-2.001 4.294-3.709 5.897-1.78 1.598-3.925 2.814-6.292 3.507-2.516 0.761-5.276 1.182-8.134 1.182-0.093 0-0.186 0-0.279-0.001-0.109 0.002-0.253 0.003-0.398 0.003-5.552 0-10.771-1.424-15.313-3.926-4.603-2.561-8.651-5.874-12.021-9.789-3.432-4.026-6.303-8.579-8.468-13.511-2.2-4.876-3.834-10.137-4.782-15.634-0.466-2.576-0.7-5.093-0.7-7.664 0-1.515 0.081-3.010 0.24-4.483 0.313-3.168 1.379-6.214 3.017-8.868 1.56-2.405 3.778-4.383 6.4-5.664 2.91-1.355 6.207-2.121 9.683-2.121 0.274 0 0.547 0.005 0.818 0.014 0.154-0.005 0.382-0.008 0.61-0.008 7.875 0 15.052 2.988 20.46 7.893 2.795 2.558 5.22 5.506 7.189 8.76 2.13 3.456 4.057 7.265 5.659 11.24l-25.857 0.512 3.438 9.746h35.584l-16.457-45.824h-6.875l0.75 8.649c-3.507-3.395-7.708-6.097-12.367-7.871z" />
<glyph unicode="&#xe926;" glyph-name="NT" horiz-adv-x="1755" d="M1395.895 463.927c-6.821-4.754-16.713-7.113-30.263-7.113h-13.44l10.295 55.625h9.874c11.246 0 19.456-1.829 25.125-5.486 4.425-2.889 9.673-8.576 9.673-19.401 0-13.038-6.089-20.114-11.264-23.643zM594.542 394.112h-103.973l6.802 36.352h65.207l7.406 40.96h-64.658l6.235 35.986h103.771zM1451.904 538.569c-15.287 10.478-38.4 15.762-68.736 15.762h-79.397l-29.531-160.293h-104.046l6.674 36.37h62.683l7.461 40.85-62.647-0.11 6.711 36.206h64.549l8.594 46.976h-131.163l-28.032-152.046h-48.11l28.233 152.064h-68.462l-28.087-152.064h-46.885l28.251 152.064h-68.48l-29.605-160.293h-104.777l6.601 36.37h62.958l7.424 40.613h-62.866l6.674 36.279h65.262l8.539 46.976h-408.466l-23.259-127.031-46.318 127.031h-71.095l-38.272-207.195h67.895l23.15 130.523 44.965-130.523h243.346l29.586 160.311h38.071l-29.605-160.311h640.347l18.542 101.211 29.989-101.211h68.023l-31.086 82.688 7.113 1.536c15.653 3.346 27.904 10.569 36.407 21.394s12.8 24.942 12.8 41.783c0 19.621-7.15 34.048-21.943 44.123z" />
<glyph unicode="&#xe927;" glyph-name="GiropayPPRO" horiz-adv-x="1755" d="M1091.493 447.817c4.882 0 9.582-0.366 13.751-0.53 0-10.971-7.771-22.217-20.114-22.217-7.589 0-13.367 3.803-13.367 10.295 0.037 8.978 8.704 12.453 19.73 12.453zM1309.897 574.171v-246.857c-0.021-35.896-29.125-64.987-65.024-64.987-0.006 0-0.013 0-0.019 0h-741.594c-0.005 0-0.012 0-0.018 0-35.899 0-65.003 29.091-65.024 64.985v246.859c0.021 35.896 29.125 64.987 65.024 64.987 0.006 0 0.013 0 0.019 0h741.594c0.005 0 0.012 0 0.018 0 35.899 0 65.003-29.091 65.024-64.985zM890.752 611.474h-387.493c-20.576-0.021-37.248-16.706-37.248-37.285 0-0.006 0-0.013 0-0.019v-246.856c0.042-20.547 16.698-37.191 37.246-37.211h387.495zM1027.365 454.345c0 22.747-14.263 47.543-40.229 47.543-14.83 0-28.562-5.961-35.072-19.145h-0.366v16.987h-30.098v-132.023h32.53v51.035h0.366c6.144-11.209 18.45-15.342 29.824-15.342 28.050 0 43.045 23.113 43.045 50.926zM1137.371 405.577c-1.171 6.173-1.841 13.273-1.841 20.53 0 0.593 0.004 1.185 0.013 1.776l-0.001 34.946c0 28.727-20.791 39.003-44.818 39.003-0.586 0.013-1.276 0.020-1.968 0.020-12.777 0-24.978-2.465-36.154-6.944l1.185-21.711c8.279 4.445 18.113 7.057 28.558 7.057 0.509 0 1.017-0.006 1.524-0.019 11.683 0.001 21.264-3.436 21.447-16.255-4.551 0.796-9.803 1.26-15.159 1.28-17.371 0-48.64-3.438-48.64-32.165 0-20.407 16.622-29.623 35.255-29.623 13.367 0 22.418 5.248 29.824 16.987h0.347c0-4.882 0.549-9.765 0.731-14.811zM1252.846 499.675h-32.494l-19.346-61.403h-0.366l-20.242 61.403h-35.054l38.126-96.274c-2.341-8.302-8.485-13.001-16.457-13.001-0.166-0.003-0.361-0.004-0.556-0.004-4.381 0-8.591 0.731-12.515 2.078l-1.942-24.84c6.079-1.383 13.060-2.176 20.226-2.176 0.006 0 0.012 0 0.018 0 29.841 0 36.881 22.949 46.097 46.592zM974.062 476.91c-11.941 0-19.895-10.478-19.895-24.558 0-13.733 9.051-24.027 19.895-24.027 12.288 0 19.694 10.295 19.694 25.289 0 12.453-7.058 23.296-19.694 23.296zM545.737 453.486c0-14.629 8.686-22.949 18.432-22.949 11.557 0 20.791 9.746 20.791 24.21 0 10.478-6.144 22.217-20.791 22.217-12.105 0-18.432-10.661-18.432-23.479zM616.411 416.64c0-38.656-18.798-51.2-56.686-51.2-0.070 0-0.154 0-0.237 0-12.795 0-25.080 2.183-36.502 6.197l2.399 25.364c8.895-4.898 19.495-7.78 30.768-7.78 0.369 0 0.737 0.003 1.104 0.009 18.742-0.001 28.854 8.85 28.854 27.263v5.065h-0.366c-7.771-10.971-18.615-16.073-31.616-16.073-25.856 0-41.929 19.493-41.929 47.323s13.202 48.951 42.478 48.951c13.915 0 25.125-7.589 32-19.145h0.293v16.969h29.44zM671.397 515.090h-32.53v23.771h32.53zM638.866 499.73h32.53v-94.153h-32.53zM762.002 500.827c-3.254 0.612-7.039 1.001-10.901 1.078-14.168 0.001-22.306-7.587-27.901-19.491h-0.366v17.335h-29.696v-94.171h32.53v39.717c0 18.432 8.503 29.44 23.68 29.44 0.55 0.029 1.193 0.045 1.841 0.045 3.243 0 6.389-0.41 9.391-1.181zM818.030 426.222c14.994 0 21.157 12.453 21.157 26.368s-6.162 26.496-21.175 26.496-21.157-12.453-21.157-26.551 6.144-26.368 21.157-26.368zM818.011 403.401c-31.086 0-54.857 18.048-54.857 49.115s23.68 49.371 54.857 49.371 54.766-18.048 54.766-49.371-23.771-49.115-54.766-49.115z" />
<glyph unicode="&#xe928;" glyph-name="PaysafeCard" horiz-adv-x="1755" d="M284.983 498.944c-3.204-1.426-5.964-3.185-8.421-5.287 0.019 0.805 0.003 1.704 0.003 2.608 0 1.798 0.062 3.582 0.184 5.35 1.276 28.154 24.607 50.685 53.202 50.685 27.705 0 50.47-21.151 53.027-48.187 0.303-2.365 0.467-4.853 0.467-7.379 0-0.972-0.024-1.939-0.072-2.899-3.916 3.695-8.864 6.192-14.344 7.133-4.085 18.168-19.996 31.566-39.036 31.566s-34.951-13.398-38.819-31.281c-2.395-0.795-4.446-1.499-6.391-2.392zM430.19 349.001h26.13v39.753h35.346c6.73 0.063 12.783 2.913 17.068 7.449 4.5 4.107 7.34 9.945 7.453 16.448v55.188q-0.421 26.862-25.143 27.063h-37.358c-3.473-0.042-6.749-0.839-9.686-2.236-2.881-1.215-5.473-2.915-7.7-5q-5.91-7.118-6.111-20.869zM490.021 422.144c0.001-0.047 0.002-0.101 0.002-0.157 0-1.657-0.768-3.134-1.967-4.096-1.142-1.354-2.826-2.204-4.709-2.204-0.045 0-0.090 0-0.135 0.001h-18.645c-5.358 0.165-8.101 2.779-8.229 7.899v36.571c0.128 4.974 2.597 7.625 7.424 7.918h20.352q5.723-0.219 5.906-6.455zM597.303 459.666h-34.743q-25.088-0.439-25.307-25.234v-21.723q0.402-23.771 26.551-23.936h35.84c0.191-0.006 0.416-0.009 0.642-0.009 6.516 0 12.374 2.819 16.42 7.304 4.083 4.594 6.566 10.654 6.566 17.294 0 0.124-0.001 0.248-0.003 0.372v56.064q-0.439 24.704-26.313 25.088h-59.355v-26.77h52.645c4.827 0.128 7.168-1.829 7.040-5.815zM563.365 427.666c-0.034 0.284-0.053 0.613-0.053 0.947 0 1.782 0.546 3.437 1.48 4.806 1.291 0.779 2.879 1.259 4.579 1.259 0.313 0 0.622-0.016 0.926-0.048l19.857 0.003c4.827 0 7.223-2.066 7.223-6.144v-7.497c-0.128-3.566-2.487-5.321-7.022-5.321h-20.114c-0.081-0.003-0.176-0.005-0.272-0.005-1.712 0-3.276 0.632-4.472 1.676-1.247 0.723-2.077 2.061-2.077 3.593 0 0.020 0 0.040 0 0.060zM750.537 388.754h54.656c0.327-0.013 0.712-0.020 1.098-0.020 3.307 0 6.489 0.536 9.463 1.526 2.682 1.301 5.12 3.183 7.078 5.486q7.34 8.259 7.614 16.488v19.621c-0.071 6.416-2.66 12.213-6.824 16.461-3.909 4.278-9.493 6.977-15.708 7.054h-23.090c-5.486 0-8.283 1.701-8.283 5.12v2.615c0 3.273 2.706 4.937 8.082 4.937h45.714v26.843h-53.961q-25.088-0.402-25.472-23.771v-20.023c0.106-6.265 3.060-11.82 7.62-15.438 4.625-4.375 10.822-7.057 17.644-7.090h23.102c1.518 0 2.798-1.006 3.84-3.035 0.351-0.669 0.571-1.457 0.603-2.294v-2.424c-0.128-3.273-2.341-4.974-6.601-5.138h-46.574zM909.093 459.593h-34.743q-25.125-0.421-25.307-25.234v-21.65q0.366-23.771 26.533-23.936h35.858c0.213-0.007 0.462-0.012 0.713-0.012 6.494 0 12.33 2.821 16.347 7.305 4.073 4.6 6.549 10.658 6.549 17.295 0 0.124-0.001 0.248-0.003 0.372v56.064q-0.421 24.704-26.295 25.088h-59.355v-26.77h52.645c4.827 0.128 7.168-1.829 7.058-5.815zM875.118 427.593c-0.032 0.276-0.050 0.595-0.050 0.919 0 1.793 0.552 3.458 1.495 4.833 1.287 0.781 2.87 1.26 4.566 1.26 0.317 0 0.631-0.017 0.939-0.050l19.783 0.003c4.809 0 7.314-2.066 7.314-6.144v-7.497c-0.146-3.566-2.469-5.321-7.022-5.321h-20.114c-0.077-0.003-0.167-0.005-0.257-0.005-1.705 0-3.262 0.632-4.45 1.675-1.267 0.714-2.114 2.060-2.114 3.604 0 0.017 0 0.033 0 0.049zM956.215 388.736h26.167v79.287h18.505v26.88h-18.505v5.687c0.11 5.12 2.926 7.753 8.466 7.881h10.057v25.929h-16.603q-12.379-0.201-20.005-6.839c-4.953-4.108-8.084-10.264-8.084-17.151 0-0.097 0.001-0.194 0.002-0.29zM1101.861 448v21.211q-0.384 25.289-24.795 25.691h-35.237q-25.015-0.421-25.454-24.795l0.219-53.76c-0.013-0.372-0.020-0.81-0.020-1.249 0-3.963 0.595-7.787 1.702-11.387 1.215-3.162 3.201-6.077 5.728-8.416 2.332-2.244 5.145-3.978 8.27-5.033 3.381-0.99 7.087-1.533 10.919-1.533 0.485 0 0.968 0.009 1.449 0.026l57.037-0.002v26.862h-53.705c-1.546 0.040-2.855 1.011-3.392 2.37-1.073 1.287-1.72 2.932-1.72 4.727 0 0.141 0.004 0.28 0.012 0.419l-0.001 1.645zM1042.469 450.432v10.734c0 0.008 0 0.018 0 0.028 0 2.045 1.080 3.838 2.7 4.84 1.429 1.257 3.286 2.016 5.321 2.016 0.131 0 0.261-0.003 0.39-0.009l18.267 0.001c0.083 0.003 0.181 0.005 0.278 0.005 1.571 0 3.032-0.473 4.248-1.284 0.998-0.743 1.655-1.95 1.655-3.311 0-0.032 0-0.064-0.001-0.096v-0.617zM1194.898 388.791v6.181h-37.413c-0.074 0-0.162-0.001-0.25-0.001-3.188 0-6.296 0.34-9.291 0.985-6.435 1.254-11.759 6.134-13.685 12.492-1.054 3.179-1.643 6.691-1.643 10.34 0 0.023 0 0.045 0 0.068v50.227c0 7.534 2.066 12.8 6.126 15.982s9.399 4.261 16.311 4.261h39.15v6.217h-40.009c-0.16 0.002-0.35 0.003-0.54 0.003-3.773 0-7.439-0.454-10.948-1.312-3.576-1.232-6.887-3.376-9.531-6.16-2.477-2.5-4.365-5.569-5.452-8.994-0.842-2.844-1.301-5.93-1.301-9.123 0-0.642 0.019-1.279 0.055-1.912l-0.004-50.034c-0.004-0.2-0.006-0.437-0.006-0.673 0-4.407 0.78-8.633 2.208-12.545 1.498-3.956 4.046-7.493 7.303-10.21 2.907-2.394 6.405-4.096 10.242-4.854 3.311-0.676 6.947-1.049 10.67-1.049 0.113 0 0.226 0 0.338 0.001zM1303.552 465.865c0.007 0.257 0.011 0.56 0.011 0.863 0 7.8-2.676 14.975-7.16 20.657-1.349 1.866-3.055 3.484-5.011 4.749-1.7 1.155-3.615 1.982-5.678 2.404-3.947 0.67-8.376 1.044-12.893 1.044-0.215 0-0.429-0.001-0.644-0.003h-53.764v-6.272h56.686c0.138 0.002 0.301 0.003 0.465 0.003 3.302 0 6.508-0.414 9.567-1.194 2.829-1.096 5.39-3.085 7.215-5.636 3.184-4.131 5.083-9.321 5.083-14.954 0-0.147-0.001-0.294-0.004-0.44v-7.055h-51.95q-26.825-0.622-27.246-27.995v-16.146c0-8.503 2.651-15.141 7.845-19.913 4.904-4.546 11.494-7.334 18.734-7.334 0.37 0 0.738 0.007 1.104 0.022l31.179-0.002c0.321-0.014 0.697-0.022 1.076-0.022 7.636 0 14.511 3.255 19.315 8.452 2.406 2.721 4.214 5.998 5.206 9.612 0.564 3.268 0.864 6.838 0.864 10.477 0 0.131 0 0.262-0.001 0.392zM1297.317 416.146c0-13.915-6.693-20.919-20.005-21.065h-31.835c-5.768 0.006-11.039 2.131-15.077 5.638-2.314 1.704-4.048 4.137-4.867 6.959-0.652 2.523-1.013 5.312-1.013 8.185 0 0.138 0.001 0.276 0.002 0.414v15.979q0 9.947 5.486 15.653c3.635 3.611 8.644 5.842 14.174 5.842 0.211 0 0.422-0.003 0.632-0.010l52.504 0.001zM1370.258 489.289v6.254h-6.949q-29.257 0-28.745-30.171v-76.617h6.272v76.69q-0.494 23.479 21.449 23.881zM1474.359 530.286h-6.254v-34.743h-49.134q-30.683 0.238-31.086-30.61v-45.714c-0.027-0.543-0.042-1.178-0.042-1.818 0-3.52 0.462-6.932 1.33-10.178 0.875-3.738 2.704-7.232 5.211-10.123 2.991-3.346 6.876-5.884 11.281-7.238 3.967-0.839 8.322-1.293 12.783-1.293 0.197 0 0.393 0.001 0.589 0.003h23.175q31.287-0.622 32.128 29.733zM1468.105 418.962c-0.183-8.667-2.779-14.738-7.881-18.286s-11.703-5.614-19.785-5.614h-21.65c-0.117-0.001-0.255-0.002-0.393-0.002-3.29 0-6.482 0.421-9.524 1.212-2.705 0.638-5.323 1.708-7.712 3.122-4.642 2.891-7.001 8.432-7.001 16.55v48.841c-0.033 0.506-0.052 1.096-0.052 1.691 0 2.882 0.447 5.659 1.276 8.267 0.931 2.998 2.643 5.72 4.896 7.883 2.218 2.62 5.169 4.546 8.536 5.464 2.907 0.761 6.108 1.182 9.407 1.182 0.129 0 0.258-0.001 0.387-0.002h49.48zM361.106 494.903h-63.854c-3.467-0.044-6.736-0.842-9.667-2.236-2.88-1.22-5.471-2.919-7.701-5.001q-5.946-7.135-6.129-20.868v-49.883q0.201-13.769 6.144-20.882c2.209-2.090 4.802-3.803 7.657-5.019 2.962-1.386 6.229-2.182 9.676-2.24h63.874q24.722 0.219 25.143 27.081v51.968q-0.402 26.862-25.143 27.063zM644.535 375.863v-26.843h61.019c0.185-0.005 0.402-0.009 0.621-0.009 6.913 0 13.097 3.124 17.216 8.038q6.447 7.916 6.684 20.881v117.029h-26.075v-72.631c-0.002-1.834-0.904-3.456-2.288-4.451-1.462-1.371-3.414-2.207-5.562-2.207-0.056 0-0.112 0.001-0.168 0.002h-18.369c-4.681 0-7.003 2.834-7.003 8.521v70.766h-26.149v-79.287c-0.007-0.237-0.011-0.515-0.011-0.794 0-3.58 0.675-7.003 1.905-10.147 1.281-3.26 3.19-6.214 5.576-8.707 2.269-2.309 5.007-4.167 8.058-5.418 2.962-1.125 6.202-1.743 9.585-1.743 0.37 0 0.739 0.007 1.106 0.022l33.319-0.002v-6.363c-0.029-1.735-0.839-3.275-2.092-4.289-1.419-1.293-3.27-2.115-5.311-2.22z" />
<glyph unicode="&#xe929;" glyph-name="MB" horiz-adv-x="1755" d="M1124.425 567.113l70.565 12.544v-270.848h-70.565zM1227.483 567.113v-258.304h70.619v270.848zM1024 308.809h70.583v198.162h-70.583zM557.44 478.866c-8.923 0.585-29.586 1.92-29.586 20.517 0 22.437 29.733 22.437 40.887 22.437 19.621 0 45.019-5.797 63.177-11.227 0 0 10.094-3.657 18.706-7.223l0.805-0.219v61.568l-1.079 0.329c-21.431 7.497-46.318 14.629-92.489 14.629-79.653-0.018-107.849-46.281-107.849-85.961 0-22.894 9.801-76.8 100.919-82.999 7.753-0.475 28.251-1.664 28.251-20.882 0-15.872-16.786-25.216-45.019-25.216-28.566 0.249-55.749 5.873-80.683 15.907l1.488-63.834c27.301-7.168 58.057-10.734 94.135-10.734 77.787 0 112.658 43.886 112.658 87.333 0 49.225-38.985 81.28-104.411 85.65zM984.192 509.806c-65.225-2.103-98.359-31.378-98.359-89.6v-111.543h71.186v91.081c0 34.834 4.571 49.774 45.915 51.2v57.911c-4.434 0.705-9.547 1.108-14.753 1.108-1.435 0-2.863-0.031-4.284-0.091zM792.667 507.136c-10.233-26.456-23.813-49.283-40.55-69.389l0.321 141.91-72.85-14.409v-256.439h72.85v79.305c21.102-31.653 31.525-79.305 31.525-79.305h87.241c-8.631 35.895-46.391 102.034-46.391 102.034 21.497 27.485 38.902 59.464 50.542 94.091zM1059.273 525.915c19.188 0 34.743 15.555 34.743 34.743s-15.555 34.743-34.743 34.743c-19.188 0-34.743-15.555-34.743-34.743 0.031-19.139 15.532-34.646 34.666-34.688z" />
<glyph unicode="&#xe92a;" glyph-name="OT" horiz-adv-x="1755" d="M1222.583 444.617c-1.024-11.374-3.566-15.963-8.393-18.523-5.906-3.145-14.629-2.103-14.629-2.103v29.714s-0.439 12.635 11.666 12.343 12.379-10.057 11.355-21.431zM1472.11 464.128v0c-0.218-72.786-59.164-131.732-131.929-131.95h-932.227c-72.786 0.218-131.732 59.164-131.95 131.929v0.021c0.197 72.802 59.151 131.769 131.929 131.986h932.226c72.799-0.218 131.753-59.185 131.95-131.968zM773.303 509.641c0-7.705 6.247-13.952 13.952-13.952s13.952 6.247 13.952 13.952c0 7.705-6.247 13.952-13.952 13.952s-13.952-6.247-13.952-13.952zM425.179 334.281s-23.497 45.038-17.079 96.64c6.656 53.522 29.458 81.719 29.458 81.719l-24.064 12.343s-23.241-19.749-32.914-79.25c-11.611-71.003 12.946-112.457 12.946-112.457zM468.261 465.829c30.263 70.894 100.571 73.253 100.571 73.253l-6.034 33.262s-93.038-11.886-127.726-92.928c-32.914-76.672 5.961-146.578 5.961-146.578h35.675s-36.846 66.487-8.448 132.992zM627.931 442.514c0 19.767-15.634 32.603-41.856 34.359-3.657 0.238-11.867 0.768-11.867 8.229 0 8.997 11.922 8.997 16.457 8.997 9.184-0.423 17.838-2.037 26.023-4.694s3.344-1.231 6.8-2.694h0.329v24.503l-0.439 0.128c-8.594 2.999-18.56 5.888-37.083 5.888-31.963 0.018-43.209-18.56-43.209-34.487 0-9.143 3.931-30.793 40.466-33.28 3.109-0.201 11.319-0.658 11.319-8.375 0-6.363-6.729-10.112-18.048-10.112-11.45 0.1-22.346 2.353-32.34 6.374l0.596-25.592c10.644-2.741 22.864-4.315 35.451-4.315 0.806 0 1.61 0.006 2.412 0.019 31.001 0.017 44.99 17.589 44.99 35.052zM693.266 449.573c8.611 11.027 15.58 23.859 20.235 37.751l-33.145 0.905c-4.097-10.602-9.535-19.749-16.239-27.808l0.129 56.845-29.257-5.778v-102.839h29.257v31.781c8.448-12.69 12.635-31.799 12.635-31.799h34.981c-3.456 14.391-18.597 40.905-18.597 40.905zM764.581 488.85c-1.791 0.287-3.857 0.451-5.961 0.451-0.547 0-1.091-0.011-1.632-0.033-26.071-0.839-39.346-12.578-39.346-35.911v-44.69h28.526v36.425c0 13.97 1.829 19.95 18.414 20.517zM801.335 488.101h-28.233v-79.433h28.306zM841.563 517.358l-28.288-5.065v-103.534h28.288zM882.889 517.358l-28.306-5.065v-103.534h28.434zM966.29 515.529h-19.017l-30.245-13.257 0.914-19.346 22.126 8.85v-81.957h26.423zM1019.776 463.232h-41.49v-20.005h41.6zM1074.487 492.91h29.97v20.224h-86.693v-19.602h30.921v-83.694h25.911zM1162.807 409.6v43.666c0 22.235-8.357 27.429-22.601 30.098s-30.775 0.64-38.802-5.486l2.267-14.080c10.094 4.736 16.165 5.87 22.949 5.486 10.277-0.475 12.8-3.657 12.8-7.717 0.11-11.941-43.429-6.272-43.173-30.665 0.165-15.433 7.314-23.15 21.76-23.15 13.275 0 23.57 10.478 23.57 10.478 0-3.182-0.11-8.686-0.11-8.686zM1245.257 452.645c-0.658 13.202-6.93 28.599-26.185 29.769-7.534 0.457-15.927-0.933-19.547-7.954v6.455h-25.582v-100.571h25.6v31.305c3.657-2.779 12.142-4.809 23.515-2.779 22.071 3.968 22.875 30.354 22.199 43.776zM1284.498 508.014h-25.179v-5.687h9.143v-25.070h6.766v25.051h9.143zM1321.161 508.014h-9.527l-6.802-21.157-7.205 21.157h-9.527v-30.757h6.327v21.559l7.515-21.559h5.211l7.589 21.778v-21.778h6.327zM1127.717 442.514c-6.144-1.627-9.527-4.791-9.527-11.191s3.255-9.929 9.618-9.435c5.961 0.457 11.392 3.657 11.392 11.538v13.623c0-0.878-5.358-2.944-11.483-4.535z" />
<glyph unicode="&#xe92b;" glyph-name="Icons-set-complete-16" d="M407.201 84.402l-257.897 214.185 18.46 22.217 233.043-193.522 449.757 684.316 24.132-15.859-467.494-711.338z" />
<glyph unicode="&#xe92c;" glyph-name="chevron-left" d="M705.991 80.717l-406.985 363.815 410.597 367.428 19.291-21.567-386.538-345.861 382.889-342.249-19.255-21.567z" />
<glyph unicode="&#xe92d;" glyph-name="chevron-right" d="M321.91 811.96l406.985-363.815-410.597-367.428-19.291 21.567 386.538 345.861-382.889 342.249 19.255 21.567z" />
<glyph unicode="&#xe92e;" glyph-name="chevron-down" d="M879.572 638.379l-363.815-406.985-367.428 410.597 21.567 19.291 345.861-386.538 342.249 382.889 21.567-19.255z" />
<glyph unicode="&#xe92f;" glyph-name="chevron-up" d="M148.329 254.298l363.815 406.985 367.428-410.597-21.567-19.291-345.861 386.538-342.249-382.889-21.567 19.255z" />
<glyph unicode="&#xe930;" glyph-name="IdealPPRO" horiz-adv-x="1755" d="M662.839 420.955h87.040v-144.53h-87.040v144.53zM756.443 493.221c0-27.206-22.055-49.262-49.262-49.262s-49.262 22.055-49.262 49.262c0 27.206 22.055 49.262 49.262 49.262s49.262-22.055 49.262-49.262zM914.761 687.543h-312.302v-473.6h312.302c68.224 0.933 122.258 17.883 160.603 50.505 46.647 39.68 70.29 102.4 70.29 186.203 0 40.101-6.217 76.050-18.487 106.898-11.639 29.5-29.204 54.454-51.37 74.394-39.748 35.32-95.263 54.338-161.092 55.416zM908.8 656.091c60.526 0 110.958-16.457 145.865-47.415 39.461-35.072 59.465-88.21 59.465-157.915 0-138.167-67.163-205.349-205.349-205.349h-274.853v410.679zM979.858 482.743c-1.445 5.486-5.614 15.086-8.082 21.705-2.414-6.638-6.491-16.219-7.918-21.705zM809.307 463.854c2.237 0.6 4.169 1.69 5.751 3.153 1.724 1.915 2.999 4.284 3.626 6.905 1.048 3.965 1.637 8.393 1.637 12.958 0 0.555-0.009 1.108-0.026 1.658 0.022 0.435 0.034 1.040 0.034 1.648 0 4.341-0.586 8.544-1.682 12.537-0.747 2.422-2.174 4.782-4.057 6.692-1.795 1.694-4.052 2.921-6.562 3.474-3.359 0.625-7.116 0.973-10.955 0.973-0.804 0-1.604-0.015-2.4-0.045l-4.731 0.003v-51.2h9.856c3.382 0.002 6.657 0.456 9.769 1.304zM1025.829 444.343v85.943h20.114v-67.657h39.387c-7.973 122.514-101.449 155.429-189.513 155.429h-105.874v-85.943h11.191c0.453 0.012 0.985 0.019 1.519 0.019 5.242 0 10.326-0.674 15.171-1.94 4.886-1.495 9.405-4.347 12.954-8.121 3.666-3.943 6.517-8.669 8.274-13.898 1.875-5.866 2.911-12.303 2.911-18.981 0-0.494-0.006-0.986-0.017-1.477 0.009-0.266 0.013-0.665 0.013-1.065 0-6.125-0.974-12.023-2.776-17.547-1.861-5.633-5.076-10.794-9.252-14.999-3.439-3.345-7.639-5.929-12.315-7.467-4.735-1.515-9.922-2.351-15.304-2.351-0.099 0-0.199 0-0.298 0.001h-12.072v-168.229h105.856c91.776 0 189.44 27.429 190.062 168.229zM923.429 444.343h-67.657v87.771h65.829v-18.286h-43.886v-14.629h40.229v-16.457h-40.229v-20.114h45.714zM994.030 444.343s-6.235 16.457-7.168 18.286h-29.714c-0.914-1.829-6.802-18.286-6.802-18.286h-22.455l33.682 87.771h20.718l34.743-87.771z" />
<glyph unicode="&#xe931;" glyph-name="MT" horiz-adv-x="1755" d="M272.457 356.571v95.086h21.943v-13.294s22.473 15.872 44.251 15.872 27.611-15.122 27.611-15.122 19.822 14.811 43.995 14.811 26.77-20.553 26.77-28.105v-69.248h-25.6v65.573s0.951 17.262-17.481 17.262c-0.276 0.007-0.6 0.011-0.926 0.011-10.641 0-20.285-4.269-27.312-11.188l0.005-71.657h-21.943v68.827s-5.376 16.75-22.601 13.422-26.77-11.191-26.77-11.191v-71.058zM668.123 453.778c-21.76-0.512-46.409-15.415-46.409-15.415v13.294h-23.771v-95.086h23.771v71.058s9.527 9.143 36.992 11.611c17.481 1.554 25.179-9.509 25.179-21.211v-61.458h23.771v59.776c0 15.195 0.695 38.382-39.534 37.431zM1404.562 353.445c21.76 0.512 47.323 15.415 47.323 15.415v-12.288h21.943v96.914h-21.943v-73.893s-10.441-9.143-37.906-11.611c-17.481-1.554-26.094 9.509-26.094 21.211v64.293h-23.771v-62.61c0-15.122 0.219-38.382 40.448-37.431zM574.171 404.114c0 27.267-22.104 49.371-49.371 49.371h-18.286c-27.267 0-49.371-22.104-49.371-49.371v0c0-27.267 22.104-49.371 49.371-49.371h18.286c27.267 0 49.371 22.104 49.371 49.371zM550.4 403.621c0-19.31-10.112-36.078-25.6-36.078h-14.629c-15.415 0-29.257 16.768-29.257 36.078v0.658c0 19.31 13.806 32.75 29.257 32.75h14.629c15.415 0 25.6-13.458 25.6-32.75zM842.478 398.629c0.091 1.829 0.165 2.341 0.165 3.657 0 27.429-18.377 49.371-45.714 49.371h-17.225c-0.114 0.001-0.249 0.001-0.384 0.001-27.141 0-49.148-21.982-49.189-49.113 0-27.433 10.624-51.058 66.743-49.375 24.485 0.896 32.128 3.529 41.106 7.57l-3.657 15.506c-10.77-7.15-19.127-9.765-37.614-9.801-36.37 0-42.898 15.726-43.557 32.183h89.399zM781.861 435.2h14.775c13.477 0 21.083-10.971 22.766-25.6h-65.829c2.834 14.629 14.811 25.6 28.288 25.6zM874.057 473.6v-23.771h-20.114v-12.8h20.114v-49.371c0-15.525 4.059-35.163 33.079-35.163 26.35 0.073 30.921 5.906 30.921 5.906v12.123c-5.108-2.124-11.026-3.543-17.219-3.959-8.326-0.137-24.838-0.539-24.838 17.637v52.827h42.057v12.8h-42.057v23.771zM1016.905 454.199c-1.276 0.033-2.779 0.051-4.286 0.051-17.191 0-33.815-2.429-49.546-6.964l1.407-10.862s10.642 4.48 38.107 6.437 26.898-13.147 26.898-13.147v-21.943h-30.464c-23.534 0-43.099-8.704-43.099-27.191s13.111-25.49 32.713-25.198c21.851 0.311 40.832 11.118 40.832 11.118v-9.929h23.771v68.937c0.018 12.599-6.071 28.123-36.334 28.69zM1029.486 377.655s-1.627-2.798-17.591-6.729-31.982-2.853-31.982 12.544 22.254 13.33 22.254 13.33h27.319zM1274.514 356.571v96.914h21.943v-18.066s10.587 12.398 23.296 16.055c4.244 1.216 9.118 1.916 14.155 1.916 3.57 0 7.058-0.351 10.431-1.021l-0.339-15.048s-17.883 2.066-30.281-4.133c-7.673-4.144-13.665-10.566-17.163-18.351l-0.099-58.266zM1138.030 675.931h60.014v-450.377h-60.014v450.377zM1132.8 675.931h60.014v-450.377h-60.014v450.377zM1139.456 488.704h46.683v-7.68h-46.683v7.68zM1139.456 481.317h46.683v-11.502h-46.683v11.502zM1139.456 518.912h46.683v-6.034h-46.683v6.034zM1139.456 513.115h46.683v-9.033h-46.683v9.033zM1139.456 549.577h46.683v-6.034h-46.683v6.034zM1139.456 543.781h46.683v-9.033h-46.683v9.033zM1139.456 577.298h46.683v-6.034h-46.683v6.034zM1139.456 571.502h46.683v-9.033h-46.683v9.033zM1139.456 602.112h46.683v-5.486h-46.683v5.486zM1139.456 596.827h46.683v-8.192h-46.683v8.192zM1139.456 623.982h46.683v-4.663h-46.683v4.663zM1139.456 619.502h46.683v-6.967h-46.683v6.967zM1139.456 644.261h46.683v-4.663h-46.683v4.663zM1139.456 639.781h46.683v-6.967h-46.683v6.967zM1139.456 658.011h46.683v-3.749h-46.683v3.749zM1139.456 654.427h46.683v-5.595h-46.683v5.595zM1139.456 670.409h46.683v-3.182h-46.683v3.182zM1139.456 667.355h46.683v-4.773h-46.683v4.773zM1139.456 457.088h46.683v-7.68h-46.683v7.68zM1139.456 449.701h46.683v-11.502h-46.683v11.502zM1139.456 425.655h46.683v-7.68h-46.683v7.68zM1139.456 418.267h46.683v-11.502h-46.683v11.502zM1139.456 394.843h46.683v-7.113h-46.683v7.113zM1139.456 387.986h46.683v-10.642h-46.683v10.642zM1139.456 363.41h46.683v-5.906h-46.683v5.906zM1139.456 357.742h46.683v-8.832h-46.683v8.832zM1139.456 334.171h46.683v-5.669h-46.683v5.669zM1139.456 328.722h46.683v-8.485h-46.683v8.485zM1139.456 307.803h46.683v-4.462h-46.683v4.462zM1139.456 303.525h46.683v-6.674h-46.683v6.674zM1139.456 284.526h46.683v-4.462h-46.683v4.462zM1139.456 280.229h46.683v-6.674h-46.683v6.674zM1139.456 265.381h46.683v-4.462h-46.683v4.462zM1139.456 261.102h46.683v-6.674h-46.683v6.674zM1139.456 249.527h46.683v-3.493h-46.683v3.493zM1139.456 246.181h46.683v-5.211h-46.683v5.211zM1139.456 234.752h46.683v-2.761h-46.683v2.761zM1139.456 232.101h46.683v-4.133h-46.683v4.133z" />
</font>
</defs>
</svg>
